<?xml version="1.0" encoding="utf-8"?>
<!-- Generator: Adobe Illustrator 24.0.0, SVG Export Plug-In . SVG Version: 6.00 Build 0)  -->
<svg version="1.1" id="Layer_1" xmlns="http://www.w3.org/2000/svg" xmlns:xlink="http://www.w3.org/1999/xlink" x="0px" y="0px"
	 viewBox="0 0 100.5 48" style="enable-background:new 0 0 100.5 48;" xml:space="preserve">
<style type="text/css">
	.st0{fill:#6C757D;}
</style>
<g>
	<path class="st0" d="M91,31.4l-2.8-2.9c-0.1-0.1-0.1-0.2,0-0.3l2.2-3.7c0-0.1,0.1-0.2,0.1-0.2c0-0.2-0.2-0.4-0.4-0.4h-1.6
		c-0.2,0-0.3,0.1-0.4,0.2l-1.4,2.4c-0.1,0.1-0.2,0.1-0.3,0l-2.2-2.3L84,24l0.1-0.2l0,0c1.3-0.7,2.7-1.8,2.7-3.7
		c0-2.2-1.6-3.6-3.9-3.6c-2.3,0-4,1.5-4,3.8c0,1,0.4,2,1.3,3l0,0l0,0.2c0,0.1,0,0.1-0.1,0.1c-1.9,1.1-2.8,2.5-2.8,4.2
		c0,3,2.5,4.5,4.9,4.5c1.7,0,3-0.6,4.2-2.1l0,0c0.1-0.1,0.2-0.1,0.3,0l1.5,1.6l0,0c0.1,0.1,0.2,0.1,0.3,0.1l1.9,0h0.1
		c0.2,0,0.4-0.2,0.4-0.4C91.1,31.5,91.1,31.4,91,31.4 M83,18.7c1,0,1.5,0.7,1.5,1.5c0,0.9-0.8,1.5-1.9,2l-0.1,0c-0.1,0-0.2,0-0.2,0
		l0,0c-0.4-0.5-1-1.2-1-1.8C81.3,19.5,82,18.7,83,18.7 M85,28.8L85,28.8c-0.7,0.9-1.5,1.5-2.7,1.5c-1.4,0-2.5-1-2.5-2.3
		c0-1.1,0.5-1.8,1.9-2.7c0.1-0.1,0.2,0,0.3,0l3,3.1c0.1,0.1,0.1,0.1,0.1,0.2l0,0L85,28.8L85,28.8z M75.4,30.2L75.4,30.2
		c-2.4,0-3.5-1.2-3.5-3.6v-7c0-0.1,0.1-0.2,0.2-0.2h3.6c0.2,0,0.4-0.2,0.4-0.4v-1.6c0-0.2-0.2-0.4-0.4-0.4h-3.6
		c-0.1,0-0.2-0.1-0.2-0.2c0,0,0,0,0,0v-3.2c0-0.2-0.2-0.4-0.4-0.4h0l-1.8,0.1c-0.2,0-0.4,0.2-0.4,0.4v3.1c0,0.1-0.1,0.2-0.2,0.2
		c0,0,0,0,0,0l-2.2,0c-0.2,0-0.4,0.2-0.4,0.4l0,1.6c0,0.1,0.1,0.2,0.1,0.3c0.1,0.1,0.2,0.1,0.3,0.1H69c0.1,0,0.2,0.1,0.2,0.2l0,7.5
		c0,4,3,5.5,5.7,5.5c0,0,0.3,0,0.6,0c0.2,0,0.4-0.2,0.4-0.4v-1.5C75.9,30.4,75.7,30.2,75.4,30.2 M65.2,31.5
		c-0.1-0.4-0.2-0.9-0.2-1.1c0-0.1,0-0.7,0-0.7l0-7.4c0-3.9-2.8-5.3-5.4-5.3c-2.1,0-3.9,0.5-5.1,1.3c-0.1,0.1-0.2,0.2-0.2,0.3
		c0,0.1,0,0.2,0.1,0.3l1,1.3c0.1,0.2,0.4,0.2,0.6,0.1l0.1-0.1c0.9-0.6,2.1-0.9,3.2-0.9c3.2,0,3.1,2.5,3.1,2.8c0,0.2-0.1,0.2-0.2,0.2
		l-0.5,0c-2.5-0.1-8.8,0.8-8.8,5.8c0,2.9,2.5,4.4,4.7,4.4c2.2,0,4-0.9,4.9-2l0,0l0,0l0.1,0.1c0,0.1,0,0.4,0,0.7
		c0,0.2,0.1,0.4,0.1,0.6c0,0.1,0.1,0.2,0.2,0.3c0.1,0,0.1,0,0.2,0l1.8,0c0.2,0,0.4-0.2,0.4-0.4C65.3,31.7,65.2,31.5,65.2,31.5
		 M62.4,25.6c-0.4,2.6-1.6,4-4,4.4c-1.6,0.3-3.1-0.4-3.2-2.2c-0.1-1.9,2.2-3.6,6.3-3.4c0,0,0.3,0,0.5,0c0.2,0,0.3,0.1,0.4,0.2
		C62.5,24.9,62.5,25.1,62.4,25.6 M99.6,30.2L99.6,30.2c-2.4,0-3.5-1.2-3.5-3.6v-7c0-0.1,0.1-0.2,0.2-0.2h3.6c0.2,0,0.4-0.2,0.4-0.4
		v-1.6c0-0.2-0.2-0.4-0.4-0.4h-3.6c-0.1,0-0.2-0.1-0.2-0.2c0,0,0,0,0,0v-3.2c0-0.2-0.2-0.4-0.4-0.4h0l-1.8,0.1
		c-0.2,0-0.4,0.2-0.4,0.4v3.1c0,0.1-0.1,0.2-0.2,0.2l-2.2,0c-0.2,0-0.4,0.2-0.4,0.4l0,1.6c0,0.1,0.1,0.2,0.1,0.3
		c0.1,0.1,0.2,0.1,0.3,0.1h2.2c0.1,0,0.2,0.1,0.2,0.2v7.5c0,4,3,5.5,5.7,5.5c0,0,0.3,0,0.6,0c0.2,0,0.4-0.2,0.4-0.4v-1.5
		C100,30.4,99.8,30.2,99.6,30.2 M44.8,19.9c0-0.4,0-1.1-0.2-1.8c-0.1-0.5-0.3-1-0.4-1.5c0.3,0.9,0.2,1.6,0.2,1.8
		c0,1.1-1.4,7.9-15,9.2c-1.2,0.1-9.8,0.2-17.4-1.7c-5-1.3-10-3.7-11-7.1c-0.1-0.5-0.1-1,0-1.5c-0.4,1.4-0.6,2.8-0.8,4.2
		c0.1,3.6,3.2,7.8,8.9,9.6c6.5,2,10.5,2.1,20,0C45,27.6,44.8,20.7,44.8,19.9 M9.7,39c-3.7-1.5-6.3-4.1-7.3-6c0.9,2,2.2,3.9,3.7,5.5
		c4.9,4.6,12.3,5.1,15.7,5.1c14.5,0,19.7-7.6,20.9-9.7c0.2-0.4,0.4-0.8,0.6-1.2C40.9,37.5,29,47,9.7,39 M25.5,36
		c-4.4,0.2-12.1-1.4-17-3.3C4.5,31.1,0.7,28,0.3,25c0,0.7,0.1,1.4,0.2,2.1c2.4,13.1,18.9,12.4,21.7,12C43,36.8,44.8,28,45.1,26.2
		c0-0.4,0.1-0.7,0.1-1.1C44.8,27.4,41.3,35.4,25.5,36 M6.7,9.5c0,2.1,3,5.3,11.6,5.3c5.1,0,9.3-1,12.4-2c5-1.7,7.5-3.7,7.4-5.2
		c0-0.2-0.1-0.6-0.4-0.9c-1.1-1-2.3-1.9-3.6-2.6c0.9,0.5,1.3,1.1,1.3,1.7c0,2.3-5.5,4.3-12.7,4.5C15.5,10.5,9.5,8.7,9.4,6.4
		c-0.1-0.7,0.5-1.5,1.5-2.1c-0.8,0.5-1.5,1-2.2,1.6C6.6,7.5,6.7,9.3,6.7,9.5 M2,15.9c0-1,0.1-1.6,0.4-2.2c0.4-0.9,0.9-1.8,1.5-2.6
		c-0.1,0.2-0.2,0.5-0.2,0.8c0,2.1,5.1,4.8,12.1,5.7c2.4,0.3,8.7,1.2,13.5,0.8c9.8-0.8,12-4.2,12-6.5c0-0.6-0.3-1.5-0.7-2
		c0.4,0.6,0.9,1.2,1.3,1.8c0.8,1.3,0.7,1.8,0.7,2.1c0,4.6-8.5,7.5-14.1,9.1C13.9,26.8,2,21.4,2,15.9"/>
	<path class="st0" d="M0.4,25.6c-0.1-0.2-0.1-0.4-0.1-0.7c0,0.6,0.1,1.1,0.2,1.6C0.4,26.3,0.4,26,0.4,25.6 M1,17.4
		c-0.1,0.5-0.3,1-0.4,1.5c0.1-0.2,0.1-0.4,0.3-0.7C0.9,18,1,17.7,1,17.4 M2.3,33c0.5,1.1,1.1,2.2,1.8,3.2c-0.4-0.6-0.7-1.2-0.9-1.9
		C2.9,33.9,2.6,33.5,2.3,33 M5.2,14c-0.3-0.2-0.5-0.4-0.7-0.6c-1,0.7-1.8,1.4-2.4,2.1c0,0.1,0,0.2,0,0.4c0,0.2,0,0.5,0.1,0.7
		C2.9,15.8,3.9,14.9,5.2,14 M40.8,13.8c0.6,0.3,1.2,0.7,1.6,1c0.1-0.3,0.2-0.7,0.2-1.1c0-0.2,0.1-0.7-0.6-2
		c-0.4-0.6-0.8-1.2-1.3-1.8l0,0c0.3,0.5,0.6,1.4,0.6,2C41.3,12.5,41.2,13.1,40.8,13.8 M3.9,11.1c-0.1,0.1-0.1,0.2-0.2,0.3l0.1-0.1
		C3.8,11.2,3.9,11.1,3.9,11.1 M35.4,5.5c0.9,0.4,1.7,0.8,2.4,1.4l-0.1-0.2C37,6,36.2,5.4,35.4,4.9c-0.2-0.1-0.4-0.2-0.6-0.4
		C35.1,4.8,35.3,5.1,35.4,5.5 M39.6,37c-0.1,0.3-0.1,0.6-0.2,1c1.8-1.6,2.8-3.2,3.3-3.9l0-0.1l0-0.2C42,34.8,40.9,35.9,39.6,37
		 M12.3,37c0-1,0.2-1.9,0.7-2.8c-0.5-0.1-1.1-0.3-1.6-0.5c-0.4,0.9-0.7,1.9-0.7,3c0,0.5,0.1,0.9,0.1,1.4c0.6,0.2,1.1,0.3,1.7,0.5
		C12.4,38,12.3,37.5,12.3,37 M44.6,18.2c-0.1-0.2-0.1-0.4-0.2-0.6c0-0.1-0.1-0.1-0.1-0.2c0.1,0.6,0.1,1,0.1,1.1
		c0,0.4-0.1,1.3-0.8,2.5c0.3,0.4,0.6,0.7,0.8,1.1c0.4-1.1,0.4-1.9,0.4-2.2C44.8,19.6,44.8,18.9,44.6,18.2 M44.6,26.9
		c-0.2,0.5-0.5,1-0.8,1.5c0.1,0.3,0.2,0.6,0.2,0.9c0.3-0.5,0.6-1.1,0.8-1.7C44.7,27.4,44.6,27.1,44.6,26.9 M42.2,31.7
		c-0.1-0.3-0.3-0.7-0.4-1c-0.7,0.7-1.6,1.3-2.6,1.9c0.2,0.4,0.3,0.8,0.4,1.3C40.6,33.1,41.5,32.4,42.2,31.7 M8.3,12.3
		c2.4-1.1,5.3-1.9,8.7-2.3c-1.2-0.2-2.3-0.4-3.2-0.6c-2.3,0.6-4.4,1.4-6.2,2.2C7.8,11.8,8,12.1,8.3,12.3 M2.6,31
		c0-0.6,0.1-1.3,0.2-1.9c-0.3-0.3-0.6-0.6-0.9-0.9C1.7,29.1,1.7,30,1.8,31c0.3,0.6,0.6,1.1,1,1.6C2.7,32.1,2.6,31.6,2.6,31
		 M1.8,20.4c-0.6,0.8-1,1.7-1.3,2.6c0.1,0.3,0.2,0.6,0.3,0.9c0.3-1,0.9-1.9,1.6-2.8C2.2,20.9,2,20.7,1.8,20.4 M9.6,7.1
		c-1,0.4-1.9,0.9-2.7,1.3c-0.1,0.4-0.2,0.8-0.2,1c1-0.5,2.2-1,3.5-1.6C9.9,7.5,9.7,7.3,9.6,7.1 M38,8.3c-1-0.4-2.3-0.6-3.6-0.8
		c-1.6,1.2-4.8,2.2-8.9,2.6c2.5,0.3,5.6,0.7,8.6,1.4C36.3,10.4,37.6,9.3,38,8.3 M34,34.8c0.2,0.5,0.3,1.1,0.4,1.7
		c0.6-0.2,1.2-0.5,1.9-0.8c-0.1-0.5-0.2-1-0.4-1.5C35.2,34.4,34.6,34.6,34,34.8 M32,42.1c1-0.3,2-0.7,2.9-1.2c0.3-0.5,0.6-1,0.8-1.5
		c-0.8,0.4-1.5,0.7-2.3,1C33,41.1,32.5,41.6,32,42.1 M5.8,36.8c0.2,0.8,0.5,1.6,0.9,2.4c0.8,0.7,1.7,1.2,2.5,1.7
		C8.6,40,8.1,39,7.8,38.1C7.1,37.7,6.4,37.2,5.8,36.8 M40.7,24.1c0.5,0.4,1,0.9,1.4,1.3c0.6-0.5,1-1,1.3-1.5
		c-0.3-0.5-0.6-0.9-0.9-1.4C42,23,41.4,23.6,40.7,24.1 M3.3,27.7c0.6-1.4,1.5-2.8,2.7-4c-0.4-0.2-0.8-0.4-1.2-0.7
		c-1.1,1.2-1.9,2.4-2.4,3.7C2.7,27.1,3,27.4,3.3,27.7 M44.3,16.9c0-0.1-0.1-0.2-0.1-0.2C44.2,16.8,44.2,16.8,44.3,16.9L44.3,16.9
		 M13.3,40.3c-0.6-0.2-1.3-0.4-1.9-0.7c0.5,1.1,1.3,2.1,2.3,3c0.8,0.2,1.6,0.4,2.4,0.6C14.9,42.4,13.9,41.4,13.3,40.3 M19.6,18
		c-1.6-0.2-2.9-0.3-3.8-0.5c-0.5-0.1-1.1-0.1-1.6-0.2c-3,1-5.7,2.4-7.8,4.1c0.4,0.2,0.9,0.5,1.3,0.7C10.8,19.9,14.9,18.4,19.6,18
		 M7.4,35.6c0-1.1,0.2-2.1,0.6-3.2c-0.6-0.3-1.2-0.6-1.8-0.9c-0.4,1-0.6,2.1-0.6,3.2c0,0.2,0,0.4,0,0.7c0.6,0.4,1.2,0.8,1.9,1.2
		C7.4,36.3,7.4,35.9,7.4,35.6 M13.7,26.3c-0.6-0.1-1.1-0.2-1.7-0.4c-0.4-0.1-0.7-0.2-1-0.3c-1.8,1.3-3.3,2.8-4.2,4.5
		c0.6,0.3,1.2,0.6,1.8,0.8c0.5-1,1.3-1.9,2.2-2.7C11.6,27.6,12.6,26.9,13.7,26.3 M8.1,15.6c-1.8,0.9-3.5,1.9-4.9,3.2
		c0.2,0.3,0.5,0.5,0.7,0.8c1.5-1.3,3.4-2.5,5.5-3.5C9,16,8.5,15.8,8.1,15.6 M37.5,25.8c-1,0.4-2.2,0.8-3.5,1.1
		c0.9,0.6,1.8,1.2,2.5,1.9c1.1-0.5,2-0.9,2.8-1.4C38.8,26.8,38.1,26.3,37.5,25.8 M34.8,20.7c1.2-0.5,2.3-1,3.4-1.6
		c-1.1-0.6-2.3-1.1-3.8-1.5c-1.4,0.3-3.1,0.6-5.1,0.8c-0.6,0.1-1.2,0.1-1.8,0.1c1.4,0.3,2.7,0.6,4,1C32.7,19.9,33.8,20.3,34.8,20.7
		 M39.8,18.1c1.1-0.8,2-1.8,2.4-2.8c-0.5-0.3-1.2-0.6-1.8-0.9c-0.7,0.8-1.7,1.7-3.4,2.4C38,17.1,38.9,17.6,39.8,18.1 M27,27.7
		c-1.4,0-3.4-0.1-5.6-0.2c-3.9,0.4-7.2,2.2-9.1,4.6c0.6,0.1,1.2,0.3,1.8,0.4c2-2.2,5.3-3.6,9.1-3.6c2.8,0,5.3,0.8,7.3,2
		c0.7-0.2,1.4-0.4,2.1-0.6C31.2,29,29.2,28.1,27,27.7 M26.6,14c1.5-0.3,2.9-0.7,4.1-1.1c0.7-0.2,1.3-0.5,1.9-0.7
		c-1.7-0.3-3.2-0.5-4.3-0.6c-3.9-0.4-9.8,0.8-11.3,1.1c-0.5,0.1-2.6,0.5-5.2,1.4c0.6,0.2,1.3,0.3,2,0.5c2.4-0.7,4.8-1,7.1-1
		C22.5,13.5,24.4,13.6,26.6,14 M28.4,22.8c0.4-0.1,0.8-0.2,1.2-0.3c-1.7-0.4-3.6-0.6-5.5-0.6c-3.6,0-7,0.7-9.9,2
		C18.3,24.5,23.2,24.3,28.4,22.8"/>
</g>
</svg>
