<?xml version="1.0" encoding="utf-8"?>
<!-- Generator: Adobe Illustrator 24.0.0, SVG Export Plug-In . SVG Version: 6.00 Build 0)  -->
<svg version="1.1" id="Layer_1" xmlns="http://www.w3.org/2000/svg" xmlns:xlink="http://www.w3.org/1999/xlink" x="0px" y="0px"
	 viewBox="0 0 80 48" style="enable-background:new 0 0 80 48;" xml:space="preserve">
<style type="text/css">
	.st0{fill-rule:evenodd;clip-rule:evenodd;fill:#6C757D;}
</style>
<g>
	<path class="st0" d="M6.25,4.26v17.03h8.92c3.51,0,6.75-1.23,6.75-4.85c0-2.45-1.76-3.56-3.7-4.15c1.18-0.47,2.52-1.47,2.52-3.55
		c0-2.67-2.65-4.48-6.22-4.48H6.25L6.25,4.26L6.25,4.26z M11.71,8.23h2.01c0.82,0,1.44,0.64,1.44,1.29c0,0.6-0.65,1.25-1.44,1.25
		h-2.01V8.23L11.71,8.23z M11.71,14.3h2.65c0.93,0,1.7,0.7,1.7,1.51c0,0.85-0.73,1.56-1.86,1.56h-2.49V14.3L11.71,14.3L11.71,14.3z"
		/>
	<path class="st0" d="M10.67,23.15v17.03h8.92c3.51,0,6.75-1.23,6.75-4.85c0-2.45-1.76-3.56-3.7-4.15c1.18-0.47,2.52-1.47,2.52-3.55
		c0-2.67-2.65-4.48-6.22-4.48L10.67,23.15L10.67,23.15L10.67,23.15z M16.13,27.12h2.01c0.82,0,1.44,0.64,1.44,1.29
		c0,0.6-0.65,1.25-1.44,1.25h-2.01V27.12L16.13,27.12z M16.13,33.19h2.65c0.93,0,1.7,0.7,1.7,1.51c0,0.85-0.73,1.56-1.86,1.56h-2.49
		V33.19L16.13,33.19L16.13,33.19z"/>
	<polygon class="st0" points="22.35,21.29 22.35,4.26 36.09,4.26 36.09,8.37 27.8,8.37 27.8,10.61 34.53,10.61 34.53,14.46 
		27.8,14.46 27.8,17.19 36.09,17.19 36.09,21.29 22.35,21.29 	"/>
	<path class="st0" d="M43.53,21.78c3.87,0,6.96-2.21,6.96-5.78c0-5.77-7.5-4.88-7.5-6.68c0-0.69,0.73-1.06,1.48-1.06
		c1.29,0,2.22,0.85,2.22,0.85l3.23-3.07c-1.29-1.23-3.33-2.26-6.08-2.26c-4.13,0-6.83,2.45-6.83,5.4c0,5.84,7.4,4.99,7.4,6.83
		c0,0.64-0.62,1.29-1.74,1.29c-1.27,0-2.28-0.77-3.07-1.42l-3.25,3.1C37.66,20.24,39.76,21.78,43.53,21.78L43.53,21.78z"/>
	<polygon class="st0" points="54.69,21.29 54.69,8.36 50.19,8.36 50.19,4.26 64.66,4.26 64.66,8.36 60.16,8.36 60.16,21.29 
		54.69,21.29 	"/>
	<path class="st0" d="M26.53,23.14h5.45v10.2c0,1.04,1.03,1.99,2.11,1.99c1.01,0,2.04-0.86,2.04-2.05V23.14h5.43v10.08
		c0,4-3.32,7.19-7.61,7.19c-4.32,0-7.41-3.47-7.41-7.41V23.14L26.53,23.14z"/>
	<polygon class="st0" points="48.27,40.17 48.27,34.09 41.86,23.14 47.38,23.14 51,29 54.63,23.14 60.16,23.14 53.73,34.15 
		53.73,40.17 48.27,40.17 	"/>
	<path class="st0" d="M60.16,32.46h13.59v10.77H60.16l-3.21-3.21v-4.34L60.16,32.46L60.16,32.46z M59.63,37.84
		c0-0.4-0.32-0.72-0.72-0.72c-0.4,0-0.72,0.32-0.72,0.72c0,0.4,0.32,0.72,0.72,0.72C59.31,38.56,59.63,38.24,59.63,37.84
		L59.63,37.84z"/>
</g>
</svg>
