<?xml version="1.0" encoding="utf-8"?>
<!-- Generator: Adobe Illustrator 24.0.0, SVG Export Plug-In . SVG Version: 6.00 Build 0)  -->
<svg version="1.1" id="Layer_1" xmlns="http://www.w3.org/2000/svg" xmlns:xlink="http://www.w3.org/1999/xlink" x="0px" y="0px"
	 viewBox="0 0 118.2 48" style="enable-background:new 0 0 118.2 48;" xml:space="preserve">
<style type="text/css">
	.st0{fill:#6C757D;}
</style>
<path class="st0" d="M14.7,25.1c-4,0-5.9-3.5-5.9-8c0-4.7,1.9-8,5.9-8s5.9,3.5,5.9,8C20.5,21.6,18.6,25.1,14.7,25.1 M14.7,11.3
	c-2.3,0-2.6,2.9-2.6,5.8s0.5,5.6,2.6,5.6c2.3,0,2.6-2.8,2.6-5.6C17.4,14,16.9,11.3,14.7,11.3z"/>
<path class="st0" d="M38.4,24.8v-11c0-1.3-0.7-2.5-2.4-2.5c-1,0-1.7,0.4-2.4,1.1v12.5h-3.1V13.7c0-1.4-1-2.5-2.6-2.5
	c-1,0-1.4,0.1-2,0.5v13.2h-3.1V10.2c1.4-0.7,2.9-1.1,5.3-1.1c2.3,0,3.6,0.7,4.3,1.7c1-1,2.4-1.7,4.4-1.7c3.4,0,4.8,2.3,4.8,4.8v11
	L38.4,24.8"/>
<path class="st0" d="M59.9,24.8v-11c0-1.3-0.7-2.5-2.4-2.5c-1,0-1.7,0.4-2.4,1.1v12.5h-3.1V13.7c0-1.4-1-2.5-2.6-2.5
	c-1,0-1.4,0.1-2,0.5v13.2h-3.1V10.2c1.4-0.7,2.9-1.1,5.3-1.1c2.3,0,3.6,0.7,4.3,1.7c1-1,2.4-1.7,4.6-1.7c3.4,0,4.8,2.3,4.8,4.8v11
	L59.9,24.8"/>
<path class="st0" d="M71,25.1c-3.7,0-5.4-1.8-5.4-5.3V9.4h3.1v10.8c0,1.4,0.7,2.6,2.4,2.6c1,0,1.6-0.1,2.2-0.5v-13h3.1V24
	C75.2,24.6,73.5,25.1,71,25.1"/>
<path class="st0" d="M87,24.8v-11c0-1.3-0.5-2.6-2.5-2.6c-1.1,0-1.6,0.1-2.2,0.5v13.2h-3.1V10.2c1.3-0.7,3.1-1.1,5.5-1.1
	c4.2,0,5.5,2.3,5.5,4.8v11L87,24.8"/>
<path class="st0" d="M94.3,6.6c-1,0-1.8-0.7-1.8-1.7s0.7-1.8,1.8-1.8c1,0,1.8,0.7,1.8,1.8C96.1,5.9,95.3,6.6,94.3,6.6 M92.7,24.8
	V9.4h3.1v15.5H92.7z"/>
<path class="st0" d="M102.9,25c-2.8,0-3.8-2-3.8-4.2v-9.2h-1.6V9.4h1.6V5.9h3.1v3.5h2.3v2.3h-2.3v9c0,1.2,0.5,2,1.6,2
	c0.2,0,0.5,0,0.7-0.1v2.2C104.3,24.8,103.8,25,102.9,25"/>
<path class="st0" d="M14.9,27.5c-2.2,0.8-4.2,0.5-5.4,0c-0.6-0.2-1.4-0.7-2.3-1.7c-1.3-1.4-2.5-4.1-2.5-9.4c0-8.3,3.6-10.1,5.8-10.7
	c0.6-0.1,2.5-0.4,4.3,0.5l1.3-2.4c-2.5-1.1-4.7-0.7-5.2-0.7C5.9,3.6,0.3,6.7,0.3,16.4c0,6.7,2.3,10.2,4.8,12l0,0
	c1.8,1.3,3.8,1.9,5.9,2c0.5,0,3.2,0.1,4.7-0.6L14.9,27.5"/>
<path class="st0" d="M117.8,9.4h-3l-2.6,10.1c-0.2,1.1-0.4,1.3-0.4,1.6l0,0c0-0.2-0.1-0.5-0.4-1.6l-2.4-10.1h-3.4l4.7,15.5
	c0,0.1-0.1,0.2-0.1,0.4l-0.1,0.2c-0.5,1.2-1.2,2.2-3,2.4c-0.1,0-0.8,0.1-1.7-0.1l0.8,2.9c0.1,0,0.6,0,0.7,0c4.4-0.1,5.2-2.9,6-5.2
	c0.4-0.8,1-3.1,1-3.1L117.8,9.4"/>
<path class="st0" d="M46.1,29.8L46.1,29.8c0,0,1.4,0,1.9,0.7c0.1,0.1,0.2,0.2,0.1,0.6c0,0,0,0.1,0,0.2s0.1,0.1,0.2,0.1
	c0.1,0,0.2,0,0.4,0s0.2-0.1,0.2-0.2c0,0,0.2-1,0.4-1.4c0,0,0.1-0.2,0-0.5l0,0c-0.1-0.2-0.6-0.4-0.8-0.5c-0.4-0.1-2.5-0.6-4.8,0.1
	c-3.4,1.1-5.5,4.1-5.5,7.8c0,2,1,3.8,2.5,4.4c1.1,0.5,2.4,0.6,3.5,0.6c0.1,0,0.1,0,0.2,0c0.1,0,2.5,0,3.1-1c0.2-0.2,0.2-0.6,0.1-1.1
	c0-0.1-0.1-0.1-0.1-0.1c-0.1,0-0.1,0-0.2,0c-0.2,0.2-1.6,0.7-2.6,0.7c-2,0-3.2-0.8-3.8-2.5c-0.7-2.3,0.5-5.4,1.6-6.6
	C43.3,30.2,44.6,29.8,46.1,29.8"/>
<path class="st0" d="M60,34.3h1.2c0.1,0,0.1-0.1,0.2-0.1l0.1-0.5v-0.1l-0.1-0.1h-1.2c0.1-0.8,0.7-4,1.1-4.4c0.1-0.1,0.2-0.2,0.5-0.4
	c0.4,0,0.7,0.1,1,0.4l0.1,0.1c0,0,0.1,0.1,0.2,0.1c0.1,0,0.1,0,0.2-0.1l0,0c0-0.1,0.5-0.7,0.4-1.2c-0.2-0.6-1.2-0.5-1.6-0.5
	c-0.4,0.1-2,1.1-2.5,1.7l0,0c-0.2,0.2-0.6,0.6-1,1.9c-0.1,0.2-0.4,1.7-0.4,1.8s0,0.2-0.1,0.2c-0.1,0.1-0.5,0.2-0.6,0.4
	c-0.1,0-0.1,0.1-0.2,0.1c-0.4,0.1-0.5,0.5-0.4,0.6c0.1,0.1,0.2,0.1,0.5,0.1h0.5c0,0,0,0,0.1,0v0.2c-0.6,3.6-1,6.1-1.3,7.6
	c-0.1,0.6-0.4,1.1-0.5,1.3c0,0,0,0-0.1,0c-0.1,0-0.7,0-0.7,0.1c-0.1,0-0.2,0-0.4,0.4c0,0.2-0.1,0.6-0.1,0.7c0,0.1,0.1,0.1,0.1,0.2
	c0.1,0,0.2,0,0.4,0c0.2,0,0.5,0,0.6-0.1c0.4-0.2,1-1,1.3-1.3c0.5-0.7,1-1.6,1.2-2.4c0.7-2.2,1.2-4.7,1.4-6.1
	C60,34.7,60,34.6,60,34.3"/>
<path class="st0" d="M55.8,38.3c0.6-1.7,0.7-3.1,0.5-4c-0.2-0.6-0.6-1.1-1.4-1.2C54.3,33,53,33,51.7,33.5c-1.2,0.4-2.2,1.3-2.8,2.4
	c-0.7,1.3-0.8,3.2-0.8,3.5c0,0.7,0.1,1.4,0.6,1.8c0.4,0.4,1,0.6,1.6,0.6l0,0C53.5,41.8,55.4,39.6,55.8,38.3L55.8,38.3 M51.8,40.4
	c-1.2,0-1.4-0.7-1.4-1.1c0,0-0.2-1.7,0.6-3.7c0.5-1.3,1.3-1.6,1.8-1.6c0.1,0,0.1,0,0.2,0h0.1c0.4,0,0.6,0.1,0.8,0.4
	c0.5,0.6,0.5,1.8,0.1,3.2C53.6,39.7,53,40.4,51.8,40.4z"/>
<path class="st0" d="M75,37.8c0,0,1.1-0.2,2-0.6c1.7-0.6,2.8-2.3,2.4-3.5c-0.1-0.4-0.5-0.6-1-0.7c-1.1-0.2-3,0.2-4.3,1.6
	c0,0-0.6,0.6-1,1.8s-0.6,2.2-0.6,3c0,0-0.1,1.1,0.1,1.7c0.2,0.6,0.8,0.8,1.7,0.8c0.1,0,0.2,0,0.4,0c1.2-0.1,3.1-1.1,3.5-1.7
	c0.1-0.1,0.1-0.4,0-0.4c0-0.1-0.1-0.1-0.2-0.1c-0.2,0-0.5,0.1-0.6,0.2c-0.4,0.2-1.4,0.7-2.2,0.5c-0.2-0.1-0.5-0.2-0.5-0.6
	c-0.2-0.6,0-1.6,0-1.7C74.9,37.9,74.9,37.8,75,37.8 M77.3,35.2c-0.5,1.3-1.7,1.7-2.3,1.8c0.2-1.4,0.7-2.9,1.7-2.9l0,0
	c0.2,0,0.4,0.1,0.5,0.2C77.4,34.4,77.3,35,77.3,35.2z"/>
<path class="st0" d="M68.3,37.8c0,0,1.1-0.2,2-0.6c1.7-0.6,2.8-2.3,2.4-3.5c-0.1-0.4-0.5-0.6-1-0.7c-1.1-0.2-3,0.2-4.3,1.6
	c0,0-0.6,0.6-1,1.8s-0.6,2.2-0.6,3c0,0-0.1,1.1,0.1,1.7c0.2,0.6,0.8,0.8,1.7,0.8c0.1,0,0.2,0,0.4,0c1.2-0.1,3.1-1.1,3.5-1.7
	c0.1-0.1,0.1-0.4,0-0.4c0-0.1-0.1-0.1-0.2-0.1c-0.2,0-0.5,0.1-0.6,0.2c0,0-1.3,0.8-2.2,0.5c-0.2-0.1-0.5-0.2-0.5-0.6
	c-0.2-0.6,0-1.6,0-1.7C68.1,37.9,68.1,37.8,68.3,37.8 M70.5,35.2c-0.5,1.3-1.7,1.7-2.3,1.8c0.2-1.4,0.7-2.9,1.7-2.9l0,0
	c0.2,0,0.4,0.1,0.5,0.2C70.8,34.4,70.7,35,70.5,35.2z"/>
<path class="st0" d="M66.6,34.2l0.1-0.5v-0.1l-0.1-0.1h-1.7c0.1-0.8,0.7-4,1.1-4.4c0.1-0.1,0.2-0.2,0.5-0.4c0.4,0,0.7,0.1,1,0.4
	l0.1,0.1c0,0,0.1,0.1,0.2,0.1c0.1,0,0.1,0,0.2-0.1c0-0.1,0.5-0.7,0.4-1.2c-0.2-0.6-1.2-0.5-1.6-0.5c-0.4,0.1-2,1.1-2.5,1.7l0,0
	c-0.2,0.2-0.6,0.6-1,1.9c0,0.2-0.4,1.8-0.5,2.4h-0.4c-0.1,0-0.1,0.1-0.2,0.1l-0.1,0.5v0.1l0.1,0.1l0,0h0.4v0.2
	c-0.2,1.3-0.8,5.5-1.3,7.6c-0.1,0.5-0.4,1.1-0.5,1.3c0,0,0,0-0.1,0c-0.1,0-0.7,0-0.7,0c-0.1,0-0.2,0-0.4,0.4c0,0.2-0.1,0.6-0.1,0.7
	s0.1,0.1,0.2,0.2c0.1,0,0.2,0,0.4,0c0.2,0,0.5,0,0.6-0.1c0.4-0.2,1-1,1.3-1.3c0.5-0.7,1-1.6,1.2-2.4c0.7-2,1.2-4.7,1.4-6.1
	c0-0.2,0.1-0.4,0.1-0.5h1.7C66.5,34.3,66.6,34.3,66.6,34.2"/>
</svg>
