<?xml version="1.0" encoding="utf-8"?>
<!-- Generator: Adobe Illustrator 24.0.0, SVG Export Plug-In . SVG Version: 6.00 Build 0)  -->
<svg version="1.1" id="Layer_1" xmlns="http://www.w3.org/2000/svg" xmlns:xlink="http://www.w3.org/1999/xlink" x="0px" y="0px"
	 viewBox="0 0 113.3 48" style="enable-background:new 0 0 113.3 48;" xml:space="preserve">
<style type="text/css">
	.st0{fill:#6C757D;}
</style>
<path class="st0" d="M14.9,11.8C7,11.8,0.3,15.2,0.3,25.3c0,8,4.4,13.1,14.8,13.1c12.1,0,12.9-8,12.9-8h-5.9c0,0-1.3,4.3-7.4,4.3
	c-5,0-8.6-3.4-8.6-8.1h22.5v-3C28.6,19,25.7,11.8,14.9,11.8L14.9,11.8z M14.7,15.6c4.8,0,8,2.9,8,7.3H6.3
	C6.3,18.2,10.5,15.6,14.7,15.6z"/>
<path class="st0" d="M28.6,2v31.4c0,1.8-0.1,4.3-0.1,4.3h5.6c0,0,0.2-1.8,0.2-3.4c0,0,2.8,4.3,10.3,4.3c7.9,0,13.3-5.5,13.3-13.4
	c0-7.3-4.9-13.2-13.3-13.2c-7.8,0-10.3,4.2-10.3,4.2V2H28.6z M43.2,15.8c5.4,0,8.8,4,8.8,9.4c0,5.8-4,9.5-8.8,9.5
	c-5.7,0-8.8-4.5-8.8-9.5C34.4,20.5,37.1,15.8,43.2,15.8L43.2,15.8z"/>
<path class="st0" d="M71.9,11.8c-11.9,0-12.7,6.5-12.7,7.6h5.9c0,0,0.3-3.8,6.4-3.8c3.9,0,7,1.8,7,5.2V22h-7
	c-9.2,0-14.1,2.7-14.1,8.2c0,5.4,4.5,8.3,10.6,8.3c8.3,0,11-4.6,11-4.6c0,1.8,0.1,3.6,0.1,3.6h5.3c0,0-0.2-2.2-0.2-3.7V21.6
	C84.1,13.5,77.6,11.8,71.9,11.8z M78.4,25.7v1.6c0,2.1-1.3,7.5-9.1,7.5c-4.3,0-6.1-2.1-6.1-4.6C63.2,25.8,69.4,25.7,78.4,25.7
	L78.4,25.7z"/>
<path class="st0" d="M80.9,12.8h6.7L97.2,32l9.6-19.2h6.1L95.4,47h-6.4l5-9.5L80.9,12.8L80.9,12.8z"/>
</svg>
