<?xml version="1.0" encoding="utf-8"?>
<!-- Generator: Adobe Illustrator 24.0.0, SVG Export Plug-In . SVG Version: 6.00 Build 0)  -->
<svg version="1.1" id="Layer_1" xmlns="http://www.w3.org/2000/svg" xmlns:xlink="http://www.w3.org/1999/xlink" x="0px" y="0px"
	 viewBox="0 0 250.8 48" style="enable-background:new 0 0 250.8 48;" xml:space="preserve">
<style type="text/css">
	.st0{fill:#6C757D;}
</style>
<path class="st0" d="M35.2,22.2c0-4.3-1.7-4.7-2.9-5.4l9.8-3.5c1.3,0.9,2.8,1.5,2.8,5.2v9.2c0,2,0,4,2.9,5.1L39,36.1
	c-3.4-1.2-3.7-4.3-3.7-6.3V22.2L35.2,22.2z M172.4,13.3c11.2,1.3,14,6.9,14,11.9c0,6.3-8.9,10-12.2,11.1c-8.3-0.6-14.9-5.8-15-12.4
	C159,17.4,169,14.6,172.4,13.3L172.4,13.3z M170.5,18.4c-1.1,2.2-1.3,4.7-0.6,7c0.7,1.9,2.2,3.7,5.1,4.9c0.7-0.7,1.9-3.9,0.8-7
	C175.1,21.4,173.6,19.5,170.5,18.4z M108.8,30l3.1-2.3l6.6,4c1.9,1,3-1,1-2.2l-9.6-5.9c-1.9-1.2-1.8-3.3,0.1-4.5l10.7-6.6l11.4,6.8
	l-3.1,2.4l-5.7-3.4c-2.1-1.2-3.4,1-1.6,2l9.5,5.6c1.8,1.2,2,3.3,0.2,4.4l-11,6.8L108.8,30L108.8,30z M0.4,19.2
	C1.5,5.8,12,7,13.5,7.1c4.8,0.3,6.6,1.4,9.7,1.9c3,0.5,6.7,0.6,9.6-1.7c0.1,2,1.1,11.6-14.6,9.8c-1,2.2-1.3,2.6-0.2,7.1
	c1.4-0.9,6.3-4.3,9.2-1l-2.9,6.1c-1.2-1.4-3.1-1.6-5.1-0.3c0.1,2.7,2.6,14.2-11.8,14.2c3.4-3.4,2.4-6.4,1.8-9.1
	c-1-4.6-3.2-10.2,2.1-17.3C9.9,16.2,5.3,15.7,0.4,19.2z M150.2,19.6v8.2c0,2,0.2,4,3,5.1l-8.9,3.3c-3.4-1.2-3.7-4.3-3.7-6.3V19.6
	h-5.1l14.7-10.8v5.6h5.7v5.2L150.2,19.6L150.2,19.6z M202.8,21.3v6.4c0,2,0.3,4.2,2.6,5.2l-8.5,3.3c-3.4-1.2-3.7-4.3-3.7-6.3v-7.7
	c0-3.4-1-4.5-2.9-5.4l9.9-3.5c1.1,0.8,2.2,1.3,2.5,3.5l9.4-3.6c3.6,0.8,5.8,4,5.8,7.7v6.6c0,2,0.1,3.6,2.7,5.2l-8.5,3.3
	c-3.4-1.2-3.7-4.3-3.7-6.3v-6.3c0-2.7-1.2-3.4-2.8-3.4L202.8,21.3z M63.2,17.2l7.5-3.8l5.4,8.8l-7.9,4l-2.9-4.5l-2.1,1.1v4.9
	c0,2,0.2,4,3,5.1l-8.8,3.4c-3.4-1.2-3.7-4.3-3.7-6.3v-7.7c0-3.4-1-4.5-2.9-5.4l9.8-3.5C61.8,14.1,62.9,14.6,63.2,17.2z M90.4,28.2
	c3.8,2.9,9.5,1.6,12.5-0.2l-3.7,6.6C93.6,36,86.3,37,81.1,31.8c-4.3-4.3-2.9-9.7-1.3-12.3c1.2-1.9,3.8-4.1,7.5-5.2
	c2.1-0.6,4.9-1.1,8.8-1.3l7.5,9.3L90.4,28.2L90.4,28.2z M87.8,25.1l5.6-2.5l-3.2-4C87.9,19.6,85.8,21.4,87.8,25.1z M237.2,28.2
	c3.8,2.9,9.5,1.6,12.5-0.2l-3.7,6.6c-5.5,1.3-12.8,2.4-18.1-2.9c-4.3-4.3-2.9-9.7-1.3-12.3c1.2-1.9,3.8-4.1,7.5-5.2
	c2.1-0.6,4.9-1.1,8.8-1.3l7.5,9.3L237.2,28.2z M234.7,25.1l5.6-2.5l-3.2-4C234.7,19.6,232.6,21.4,234.7,25.1z"/>
</svg>
