<?xml version="1.0" encoding="utf-8"?>
<!-- Generator: Adobe Illustrator 24.0.0, SVG Export Plug-In . SVG Version: 6.00 Build 0)  -->
<svg version="1.1" id="Layer_1" xmlns="http://www.w3.org/2000/svg" xmlns:xlink="http://www.w3.org/1999/xlink" x="0px" y="0px"
	 viewBox="0 0 137.4 48" style="enable-background:new 0 0 137.4 48;" xml:space="preserve">
<style type="text/css">
	.st0{fill:#6C757D;}
</style>
<g>
	<path class="st0" d="M121.8,5.3h-4.2l-1.3,7.6h2.4c2-2.3,3.7-7.6,3.7-7.6L121.8,5.3z M30.4,5.4H19.2v38.2h12V38h-5.5V25.7h4.7v-5.6
		h-4.7v-9.2h5.1V5.4H30.4z M115.4,5.3h-4.7c0,0-1.5,10.5-1.9,14.1c-0.5-3.6-2-14.1-2-14.1h-6.6l4.6,26.2v12h6.6V31.4l4.5-25.6
		l0.1-0.5L115.4,5.3L115.4,5.3z M15.8,5.4h-6v14.6H7V5.4H0.5v38.2H7V25.4h2.7v18.1h6.4V5.4H15.8L15.8,5.4z M48.4,36.7v-9
		c0-2.2-0.9-3.8-2.6-4.8c1.8-1,2.8-2.8,2.8-5.4v-5.7c0-3.9-2.2-6.4-5.6-6.4h-9.6v38.2h6.3v-18h1c0.4,0,1.5,0,1.5,1.7v11.6
		c0,1.5,0.1,3.1,0.7,4.4l0.1,0.2h7.9C50.9,43.5,48.4,42.3,48.4,36.7 M42.4,19c0,1.5-1.3,1.6-1.8,1.6h-0.8v-9.5h0.7
		c1.2,0,1.9,0.5,1.9,1.5L42.4,19L42.4,19z M121.9,11.8v3.7c0,3.1,0.7,4.7,2.1,6.7c0.9,1.3,2,2.5,3.1,3.7l2.2,2.5
		c0.8,1.1,1.4,1.9,1.4,3.4v5.7c0,0.6-0.5,1.1-1.3,1.1c-0.8,0-1.3-0.5-1.3-1.3v-7.3h-6.3v7.6c0,4.1,2.9,6.6,7.5,6.6
		c3.7,0,7.8-2.1,7.8-6.6v-6.2c0-2.3-0.3-3.8-1.8-6c-0.9-1.4-2.4-3-3.7-4.4l-1.6-1.8c-1.1-1.3-1.6-2.4-1.6-4.6v-2.8
		c0-0.9,0.6-1.3,1.2-1.3c0.7,0,1.2,0.5,1.2,1.3v5.6h6.1v-5.7c0-4.6-2.5-6.8-7.3-6.8C124.6,4.8,121.9,7.3,121.9,11.8 M98.1,5.3h-11
		v38.2h12V38h-5.4V25.6h4.7v-5.5h-4.7v-9.2h4.9V5.3H98.1z M83.7,5.3h-6v14.6h-2.7V5.3h-6.5v38.2h6.5V25.4h2.7v18.1h6.4V5.3H83.7z
		 M51,11.9v3.7c0,3.1,0.7,4.7,2.1,6.7c0.9,1.3,2,2.5,3.1,3.7l2.2,2.5c0.8,1.1,1.4,1.9,1.4,3.4v5.7c0,0.6-0.5,1.1-1.3,1.1
		s-1.3-0.5-1.3-1.3v-7.3h-6.3v7.6c0,4.1,2.9,6.6,7.5,6.6c3.7,0,7.7-2.1,7.7-6.6v-6.2c0-2.3-0.3-3.8-1.8-6c-0.9-1.4-2.4-3-3.7-4.4
		L59,19.2c-1.1-1.3-1.6-2.4-1.6-4.6v-2.8c0-0.9,0.6-1.3,1.2-1.3c0.7,0,1.2,0.5,1.2,1.3v5.6h6.1v-5.7c0-4.6-2.5-6.8-7.3-6.8
		C53.7,4.8,51,7.3,51,11.9"/>
</g>
</svg>
