<?xml version="1.0" encoding="utf-8"?>
<!-- Generator: Adobe Illustrator 24.0.0, SVG Export Plug-In . SVG Version: 6.00 Build 0)  -->
<svg version="1.1" id="Layer_1" xmlns="http://www.w3.org/2000/svg" xmlns:xlink="http://www.w3.org/1999/xlink" x="0px" y="0px"
	 viewBox="0 0 47.7 48" style="enable-background:new 0 0 47.7 48;" xml:space="preserve">
<style type="text/css">
	.st0{fill:#6C757D;}
</style>
<path class="st0" d="M23.9,47.9c-0.3,0-0.4,0-0.7,0L28,34.4h6.7c1.2,0,2.5-0.9,2.8-1.9l5.2-14.5c0.9-2.4-0.4-4.3-3-4.3h-9.3L22.8,35
	l0,0l-4.5,12.1C7.8,44.6,0.1,35.1,0.1,23.9c0-10.8,7.3-20,17.4-22.9l-4.6,12.6l0,0L5.3,34.6h5.1l6.4-17.7h3.7l-6.4,17.7h5.1l6-16.6
	c0.9-2.4-0.4-4.3-3-4.3h-4.3l4.9-13.5c0.3,0,0.7,0,1,0c13.2,0,23.8,10.6,23.8,23.8C47.6,37.2,37,47.9,23.9,47.9L23.9,47.9z
	 M38.2,16.8h-3.7l-5.4,14.7h3.7L38.2,16.8z"/>
</svg>
