<?xml version="1.0" encoding="utf-8"?>
<!-- Generator: Adobe Illustrator 24.0.0, SVG Export Plug-In . SVG Version: 6.00 Build 0)  -->
<svg version="1.1" id="Layer_1" xmlns="http://www.w3.org/2000/svg" xmlns:xlink="http://www.w3.org/1999/xlink" x="0px" y="0px"
	 viewBox="0 0 156.2 48" style="enable-background:new 0 0 156.2 48;" xml:space="preserve">
<style type="text/css">
	.st0{fill:#6C757D;}
</style>
<path class="st0" d="M43.9,15.1c-0.5,0-0.9,0.4-0.9,0.9v18.2c-1.4,0.3-2.8,0.5-4.2,0.5c-3.1,0-4.3-1.2-4.3-4.6V16
	c0-0.5-0.3-0.9-0.8-0.9c0,0,0,0,0,0H29v15c0,7,3.7,9.3,9.7,9.3c3.4-0.1,6.7-0.6,10-1.5V15.1L43.9,15.1L43.9,15.1z"/>
<path class="st0" d="M117,39.2c0.5,0,0.9-0.4,0.9-0.9V19.9c1.4-0.3,2.8-0.5,4.2-0.5c3.1,0,4.3,1.2,4.3,4.6v14.2
	c0,0.5,0.3,0.9,0.8,0.9c0,0,0,0,0,0h4.8V24c0-7-3.7-9.3-9.7-9.3c-3.4,0.1-6.7,0.6-10,1.5v23L117,39.2L117,39.2z"/>
<path class="st0" d="M97.9,14.7c-6.2,0-10.1,3.4-10.1,10.5v3.6c0,8,4.2,10.5,8.8,10.5c2.3,0,4.6-1.6,5.3-2.6v1.5
	c0,0.5,0.4,0.8,0.8,0.8h4.8V16.1C104.4,15.2,101.2,14.8,97.9,14.7 M102,33.3c-1,0.9-1.8,1.4-4,1.5c-3.1,0-4.5-1.9-4.5-6v-3.3
	c0-4.7,1.7-6,4.5-6c1.4,0,2.7,0.1,4,0.3V33.3z"/>
<path class="st0" d="M146,14.7c-6.2,0-10.1,3.4-10.1,10.5v3.6c0,8,4.2,10.5,8.8,10.5c2.3,0,4.6-1.6,5.3-2.6v1.5
	c0,0.5,0.4,0.8,0.8,0.8h4.8V16.1C152.5,15.2,149.3,14.8,146,14.7 M150,33.3c-1,0.9-1.8,1.4-4,1.5c-3.1,0-4.5-1.9-4.5-6v-3.3
	c0-4.7,1.7-6,4.5-6c1.4,0,2.7,0.1,4,0.3V33.3z"/>
<path class="st0" d="M0.7,39.2h5c0.5,0,0.8-0.4,0.8-0.9V25h9.3c1.4,0,2.6,1.1,2.7,2.5v10.8c0,0.5,0.4,0.8,0.8,0.9h5V7.6h-5
	c-0.4,0-0.8,0.4-0.8,0.8v11.9H8.9c-1.3,0-2.3-1-2.3-2.2V8.4c0-0.4-0.4-0.8-0.9-0.8h-5V39.2z"/>
<path class="st0" d="M75.3,14.7c-2.2,0-4.4,0.6-6.3,1.8c-1.7-1.3-4.1-1.8-7-1.8c-2.9,0-5.9,0.6-8.6,1.6v22.9h4.8
	c0.5,0,0.9-0.4,0.8-0.9c0,0,0,0,0,0l0,0V19.9c0.9-0.3,1.8-0.4,2.8-0.4c3.3,0,4.1,1.3,4.1,4.6v14.2c0,0.5,0.4,0.9,0.9,0.9h3.9
	c0.5,0,0.8-0.4,0.9-0.8c0,0,0,0,0-0.1V20.6c0.9-0.7,2.1-1.1,3.3-1.1c2.5,0,3.6,1.1,3.6,4.3v14.5c0,0.5,0.4,0.9,0.8,0.9h4.8V23
	C83.9,16.8,80.1,14.7,75.3,14.7"/>
</svg>
