<?xml version="1.0" encoding="utf-8"?>
<!-- Generator: Adobe Illustrator 24.0.0, SVG Export Plug-In . SVG Version: 6.00 Build 0)  -->
<svg version="1.1" id="Layer_1" xmlns="http://www.w3.org/2000/svg" xmlns:xlink="http://www.w3.org/1999/xlink" x="0px" y="0px"
	 viewBox="0 0 80 48" style="enable-background:new 0 0 80 48;" xml:space="preserve">
<style type="text/css">
	.st0{fill:#6C757D;}
</style>
<path class="st0" d="M38.1,42C24.3,43.3,9.8,41.3,7.8,30.4c-1-5.3,1.5-11,4.7-14.5V14c-5.9,5.1-9,11.6-7.1,19.2
	C7.8,43,20.1,48.7,39.1,46.8c7.5-0.8,17.4-3.1,24.1-6.9v-5.4C57,38.2,46.8,41.3,38.1,42L38.1,42z M74.8,13.9
	C71.5-2.2,40.3-3.2,20.1,9v1.4C40.3,0,68.8,0.2,71.4,14.9c0.9,4.9-1.9,10-6.9,13v3.9C70.5,29.5,76.5,22.5,74.8,13.9L74.8,13.9z"/>
<path class="st0" d="M62,11.5h-3.6v16.2c0,1.9,0.9,3.5,3.6,3.9V11.5L62,11.5z M18.6,17.4H15V28c0,1.9,0.9,3.5,3.6,3.9V17.4
	L18.6,17.4z M15,12h3.6v3.5H15V12z M40.5,31.7c-3,0-4.2-2-4.2-4.1v-14h3.6v3.9h2.8v2.9h-2.8v7c0,0.9,0.4,1.2,1.2,1.2h1.5v3h-2.1
	 M47.1,25.8c0,1.9,1.1,3.2,3.2,3.2c1.6,0,2.4-0.5,3.4-1.4l2.2,2.1c-1.4,1.4-2.9,2.2-5.6,2.2c-3.5,0-6.8-1.9-6.8-7.4
	c0-4.8,2.9-7.4,6.6-7.4c3.9,0,6.1,3.1,6.1,7.3v1.2L47.1,25.8 M50.1,20.2c-1.2,0-2.1,0.6-2.6,1.5c-0.2,0.5-0.4,0.9-0.4,1.5h5.6
	C52.6,21.7,51.9,20.2,50.1,20.2z M28.5,20.4c1,0,1.5,0.5,1.5,1.4v10h3.6v-10c0-2-1.1-4.2-4.2-4.2h-7.5v14.2h3.6V20.4H28.5L28.5,20.4
	z"/>
</svg>
