<?xml version="1.0" encoding="utf-8"?>
<!-- Generator: Adobe Illustrator 24.0.0, SVG Export Plug-In . SVG Version: 6.00 Build 0)  -->
<svg version="1.1" id="Layer_1" xmlns="http://www.w3.org/2000/svg" xmlns:xlink="http://www.w3.org/1999/xlink" x="0px" y="0px"
	 viewBox="0 0 150.8 48" style="enable-background:new 0 0 150.8 48;" xml:space="preserve">
<style type="text/css">
	.st0{fill:#6C757D;}
</style>
<g>
	<g>
		<g>
			<path class="st0" d="M10.8,16.8h4.8V27h6.7v4.1H10.8L10.8,16.8L10.8,16.8z"/>
		</g>
		<g>
			<path class="st0" d="M28.8,16.8h5.3l2.8,8l2.8-8h5.3l-5.8,14.4h-4.6L28.8,16.8z"/>
		</g>
		<g>
			<path class="st0" d="M45.1,16.8h12.2v3.9h-7.5v1.4h7v3.4h-7v1.5h7.6v3.9H45.1L45.1,16.8L45.1,16.8z"/>
		</g>
		<g>
			<path class="st0" d="M63,16.8h4.5l5.1,6.3v-6.3h4.7v14.3H73l-5.3-6.6v6.6H63V16.8z"/>
		</g>
		<g>
			<path class="st0" d="M83,16.7h4.7l6,14.4h-5.2l-0.8-1.9h-5l-0.7,1.9H77L83,16.7z M86.6,25.8l-1.3-3.5L84,25.8H86.6z"/>
		</g>
		<g>
			<path class="st0" d="M94.5,20.9h-4.2v-4h13.2v4h-4.2v10.2h-4.8L94.5,20.9L94.5,20.9z"/>
		</g>
		<g>
			<path class="st0" d="M104.2,16.8h4.8v14.3h-4.8V16.8z"/>
		</g>
		<g>
			<path class="st0" d="M109.9,24L109.9,24c0-4.2,3.4-7.5,7.8-7.5c4.4,0,7.8,3.3,7.8,7.4v0c0,4.1-3.4,7.4-7.8,7.4
				C113.2,31.4,109.9,28.1,109.9,24z M120.6,24L120.6,24c0-1.7-1.2-3.3-3-3.3c-1.8,0-3,1.5-3,3.2v0c0,1.7,1.2,3.2,3,3.2
				C119.5,27.2,120.6,25.7,120.6,24z"/>
		</g>
		<g>
			<path class="st0" d="M125.9,16.8h4.5l5.1,6.3v-6.3h4.7v14.3H136l-5.3-6.6v6.6h-4.7L125.9,16.8L125.9,16.8z"/>
		</g>
	</g>
	<g>
		<path class="st0" d="M150.5,40H0.2V8h150.3V40z M3.4,36.9h143.9V11.2H3.4V36.9z"/>
	</g>
	<g>
		<g>
			<path class="st0" d="M30.5,13.9c0,0-0.3-0.5-0.4-0.6c-0.1-0.1-0.2,0-0.2,0s-0.3,0.2-0.5,0.3c-0.2,0.1-0.2,0.2-0.2,0.3
				c0,0.1-0.1,0.5-0.1,0.5c0,0.1-0.1,0.2-0.1,0.2l-2.7,2.1l-0.3,0.1l-0.8,0.4l0-0.6c0.1,0,0.2,0.1,0.2,0.1c0.1,0,0.2,0,0.2,0
				s0-0.1,0-0.2s0-0.2,0-0.2s0.1,0.1,0.2,0.1c0.1,0,0.2,0,0.2-0.1c0,0,0.1-0.1,0.1-0.1s-0.2-0.1-0.2-0.2c0,0-0.1-0.1-0.1-0.1
				c0.1,0,0.2-0.1,0.2-0.1s-0.1,0-0.1-0.1c-0.1-0.1-0.1-0.1-0.1-0.2c0-0.1,0-0.1,0-0.1s0,0.1,0.2,0.1c0.1,0,0.2-0.1,0.2-0.1
				s-0.1,0-0.1-0.1c-0.1-0.1-0.1-0.1-0.1-0.2c0-0.1,0-0.2-0.1-0.3c0,0,0-0.1-0.1-0.2c0-0.2-0.1-0.3-0.1-0.3
				c-0.3-0.4-1.1-0.5-1.1-0.5c-0.4-0.1-0.8,0.4-0.9,0.9c-0.3,0.8-0.2,1.6-0.2,1.6s0,0.2,0.1,0.2c0.1,0,0.4,0.1,0.4,0.1l0,0.7
				l-0.8,0.1c0,0-0.6-0.4-1.1-0.6L20,15.3c0,0-0.1-0.1-0.1-0.2c0,0-0.1-0.4-0.1-0.5c0-0.1,0-0.2-0.2-0.3c-0.2-0.1-0.5-0.3-0.5-0.3
				s-0.1-0.1-0.2,0c-0.1,0.1-0.4,0.6-0.4,0.6l0.2,0.6c0,0,0.1,0.1,0.2,0.2l0.1,0.1l0.8,0.7l0,0l1.3,1.2l0.4,0.4c0,0,0,0,0,0.1
				c0,0.1,0,0.3,0,0.3s0,0.1,0,0.1c0,0,0.8,0.6,0.8,0.6s0,0,0,0.1l0.1,4.3c0,0,0,0.1,0.1,0.1l0.2,0.1l0.5,4.6l1,3.1L22.9,32
				c0,0-0.1,0-0.1,0.1c0,0-0.1,0.2-0.1,0.2c0,0.1,0,0.1,0,0.1l2.4,0L24.9,33l-0.1,0.2c0,0-0.1,0.3,0.1,0.4c0.1,0,0.6,0.1,0.7,0
				c0.2,0,0.7,0,0.7-0.1c0.1-0.1,0.1-0.3-0.2-2.2L25.9,24l0.6-4.5c0.1-0.5,0.1-0.6,0.1-0.6s0.6-0.5,0.7-0.5c0.1-0.1,0.1-0.1,0.1-0.1
				v-0.5c0-0.1,0-0.2,0-0.2l0.5-0.5l0.2-0.2l1.7-1.6l0.3-0.3l0.1-0.1c0.1-0.1,0.2-0.2,0.2-0.2s0.1-0.3,0.2-0.4
				C30.5,14.1,30.5,13.9,30.5,13.9"/>
		</g>
	</g>
</g>
</svg>
