<?xml version="1.0" encoding="utf-8"?>
<!-- Generator: Adobe Illustrator 24.0.0, SVG Export Plug-In . SVG Version: 6.00 Build 0)  -->
<svg version="1.1" id="Layer_1" xmlns="http://www.w3.org/2000/svg" xmlns:xlink="http://www.w3.org/1999/xlink" x="0px" y="0px"
	 viewBox="0 0 140.2 48" style="enable-background:new 0 0 140.2 48;" xml:space="preserve">
<style type="text/css">
	.st0{fill:#6C757D;}
</style>
<g>
	<path class="st0" d="M58.4,2.9c-1.9,0-3.4,1.5-3.4,3.4c0,1.9,1.5,3.4,3.4,3.4c2,0,3.4-1.5,3.4-3.4C61.9,4.4,60.4,2.9,58.4,2.9
		 M71.2,5.8H66v6.4h-2.8v4.6H66v16.1h5.2V16.8H74v-4.6h-2.8V5.8z M109,16.5c2.2,0,3.9,1.1,5.3,2.7l3.6-3.5c-2-2.6-5.2-4.1-8.8-4.1
		c-6.2,0-11.2,4.7-11.2,10.9s4.9,10.9,11.2,10.9c3.6,0,6.8-1.6,8.8-4.1l-3.6-3.5c-1.3,1.5-3.1,2.7-5.4,2.7c-3.3,0-5.8-2.6-5.8-6
		C103.1,19.1,105.6,16.5,109,16.5 M131.2,11.5c-2.6,0-4.7,1-6.2,2.6V3.5h-5.2v29.4h5.2V21.6c0-3,1.9-5,5-5c3,0,4.5,1.8,4.5,5v11.2
		h5.1V20.7C139.7,15,136.1,11.5,131.2,11.5 M85.6,11.5c-6.2,0-10.9,4.7-10.9,11.1c0,6.2,4.3,10.8,11,10.8c3.7,0,7-1.4,9.4-3.9
		l-3.4-3.4c-1.7,1.6-3.5,2.8-5.8,2.8c-2.8,0-4.9-1.6-5.7-4.3h16.1v-1.3C96.2,16.2,91.8,11.5,85.6,11.5 M80,20.3
		c0.7-2.8,2.8-4.3,5.5-4.3s4.7,1.5,5.4,4.3H80z M42.7,40.1c-3.3,0-5.9-2.6-5.9-5.9h-5.2c0,6.2,4.9,10.9,11.2,10.9
		c6.2,0,11.2-4.7,11.2-10.9h-5.2C48.6,37.6,46,40.1,42.7,40.1 M55.9,32.8h5.2V12.2h-5.2V32.8z M0.3,32.8h5.2V3.4H0.3
		C0.3,3.4,0.3,32.8,0.3,32.8z M18.6,11.5c-6.2,0-11.2,4.7-11.2,10.9s4.9,10.9,11.2,10.9c6.2,0,11.2-4.7,11.2-10.9
		C29.8,16.3,24.9,11.5,18.6,11.5 M18.6,28.5c-3.3,0-5.9-2.6-5.9-6c0-3.4,2.6-5.9,5.9-5.9c3.4,0,6,2.6,6,6
		C24.6,25.9,22,28.5,18.6,28.5 M53.6,16.3v-4.1h-7.2c-1.2-0.4-2.4-0.6-3.7-0.6c-6.2,0-11.2,4.7-11.2,10.9s4.9,10.9,11.2,10.9
		c6.2,0,11.2-4.7,11.2-10.9c0-2.1-0.6-4.1-1.7-5.7L53.6,16.3z M42.7,28.5c-3.3,0-5.9-2.6-5.9-6c0-3.4,2.6-5.9,5.9-5.9
		c3.4,0,6,2.6,6,6C48.7,25.9,46.1,28.5,42.7,28.5"/>
</g>
</svg>
