<?xml version="1.0" encoding="utf-8"?>
<!-- Generator: Adobe Illustrator 24.0.0, SVG Export Plug-In . SVG Version: 6.00 Build 0)  -->
<svg version="1.1" id="Layer_1" xmlns="http://www.w3.org/2000/svg" xmlns:xlink="http://www.w3.org/1999/xlink" x="0px" y="0px"
	 viewBox="0 0 181.2 48" style="enable-background:new 0 0 181.2 48;" xml:space="preserve">
<style type="text/css">
	.st0{fill:#6C757D;}
</style>
<path class="st0" d="M180.5,22.7v-3.2h-3.9v-4.9l-0.1,0l-3.7,1.1l-0.1,0v3.7h-5.8v-2.1c0-1,0.2-1.7,0.6-2.2c0.4-0.5,1-0.7,1.8-0.7
	c0.6,0,1.1,0.1,1.7,0.4l0.1,0.1v-3.3l-0.1,0c-0.5-0.2-1.3-0.3-2.2-0.3c-1.1,0-2.2,0.2-3.1,0.7c-0.9,0.5-1.6,1.2-2.1,2.1
	c-0.5,0.9-0.8,1.9-0.8,3.1v2.3h-2.7v3.2h2.7V36h3.9V22.7h5.8v8.5c0,3.5,1.6,5.3,4.9,5.3c0.5,0,1.1-0.1,1.7-0.2
	c0.6-0.1,1-0.3,1.2-0.4l0.1,0v-3.2l-0.2,0.1c-0.2,0.1-0.5,0.3-0.8,0.3c-0.3,0.1-0.6,0.1-0.8,0.1c-0.8,0-1.3-0.2-1.7-0.6
	c-0.4-0.4-0.5-1.1-0.5-2.1v-7.8L180.5,22.7L180.5,22.7z M151.4,33.2c-1.4,0-2.6-0.5-3.3-1.4c-0.8-0.9-1.2-2.3-1.2-4
	c0-1.7,0.4-3.1,1.2-4.1c0.8-0.9,1.9-1.4,3.3-1.4c1.4,0,2.4,0.5,3.2,1.4c0.8,0.9,1.2,2.3,1.2,4c0,1.8-0.4,3.2-1.1,4.1
	C154,32.7,152.9,33.2,151.4,33.2 M151.6,19.1c-2.7,0-4.9,0.8-6.4,2.4c-1.5,1.6-2.3,3.7-2.3,6.5c0,2.6,0.8,4.7,2.3,6.2
	c1.5,1.5,3.5,2.3,6.1,2.3c2.6,0,4.8-0.8,6.3-2.4c1.5-1.6,2.3-3.7,2.3-6.4c0-2.6-0.7-4.7-2.2-6.2C156.2,19.9,154.2,19.1,151.6,19.1
	 M136.5,19.1c-1.9,0-3.4,0.5-4.6,1.4c-1.2,0.9-1.8,2.2-1.8,3.7c0,0.8,0.1,1.5,0.4,2c0.3,0.6,0.7,1.1,1.2,1.5
	c0.5,0.4,1.3,0.9,2.4,1.3c0.9,0.4,1.6,0.7,2,0.9c0.4,0.2,0.7,0.5,0.9,0.7c0.2,0.2,0.2,0.5,0.2,0.9c0,1.1-0.8,1.6-2.5,1.6
	c-0.6,0-1.4-0.1-2.1-0.4c-0.8-0.3-1.5-0.6-2.2-1.1l-0.2-0.1v3.8l0.1,0c0.6,0.3,1.3,0.5,2.1,0.6c0.8,0.2,1.6,0.3,2.2,0.3
	c2,0,3.6-0.5,4.8-1.4c1.2-0.9,1.8-2.2,1.8-3.7c0-1.1-0.3-2.1-1-2.8c-0.6-0.8-1.7-1.5-3.3-2.1c-1.2-0.5-2-0.9-2.3-1.2
	c-0.3-0.3-0.5-0.7-0.5-1.3c0-0.5,0.2-0.9,0.6-1.2c0.4-0.3,1-0.5,1.7-0.5c0.7,0,1.3,0.1,2,0.3c0.7,0.2,1.3,0.5,1.7,0.8l0.2,0.1v-3.6
	l-0.1,0c-0.4-0.2-1-0.4-1.8-0.5C137.7,19.2,137.1,19.1,136.5,19.1 M120,33.2c-1.4,0-2.6-0.5-3.3-1.4c-0.8-0.9-1.2-2.3-1.2-4
	c0-1.7,0.4-3.1,1.2-4.1c0.8-0.9,1.9-1.4,3.3-1.4c1.4,0,2.4,0.5,3.2,1.4c0.8,0.9,1.2,2.3,1.2,4c0,1.8-0.4,3.2-1.1,4.1
	C122.5,32.7,121.4,33.2,120,33.2 M120.1,19.1c-2.7,0-4.9,0.8-6.4,2.4c-1.5,1.6-2.3,3.7-2.3,6.5c0,2.6,0.8,4.7,2.3,6.2
	c1.5,1.5,3.5,2.3,6.1,2.3c2.6,0,4.8-0.8,6.3-2.4c1.5-1.6,2.3-3.7,2.3-6.4c0-2.6-0.7-4.7-2.2-6.2C124.7,19.9,122.7,19.1,120.1,19.1
	 M105.4,22.4v-2.9h-3.9V36h3.9v-8.4c0-1.4,0.3-2.6,1-3.5c0.6-0.9,1.5-1.3,2.5-1.3c0.3,0,0.7,0.1,1.2,0.2c0.4,0.1,0.7,0.2,0.9,0.4
	l0.2,0.1v-3.9l-0.1,0c-0.4-0.2-0.9-0.2-1.5-0.2c-1,0-1.8,0.3-2.6,0.9C106.3,20.7,105.8,21.4,105.4,22.4L105.4,22.4L105.4,22.4z
	 M94.6,19.1c-1.8,0-3.4,0.4-4.7,1.1c-1.4,0.8-2.4,1.8-3.1,3.2c-0.7,1.4-1.1,3-1.1,4.7c0,1.6,0.3,3,1,4.3c0.7,1.3,1.7,2.3,2.9,2.9
	c1.2,0.7,2.7,1,4.2,1c1.8,0,3.4-0.4,4.7-1.1l0.1,0v-3.6l-0.2,0.1c-0.6,0.4-1.2,0.7-1.9,1c-0.7,0.2-1.3,0.4-1.9,0.4
	c-1.5,0-2.7-0.5-3.6-1.4c-0.9-0.9-1.3-2.3-1.3-3.9c0-1.7,0.5-3,1.4-4c0.9-1,2.1-1.5,3.6-1.5c1.3,0,2.5,0.4,3.7,1.3l0.2,0.1V20
	l-0.1,0c-0.4-0.2-1-0.5-1.8-0.6C96,19.2,95.3,19.1,94.6,19.1 M83,19.5h-3.9V36H83V19.5L83,19.5z M81.1,12.5c-0.6,0-1.2,0.2-1.7,0.6
	c-0.5,0.4-0.7,1-0.7,1.6c0,0.6,0.2,1.2,0.7,1.6c0.5,0.4,1,0.6,1.7,0.6s1.2-0.2,1.7-0.6c0.5-0.4,0.7-1,0.7-1.6c0-0.6-0.2-1.2-0.7-1.6
	C82.4,12.7,81.8,12.5,81.1,12.5 M71.4,18.3V36h4V13h-5.5l-7,17.1L56.2,13h-5.7v23h3.7V18.3h0.1L61.5,36h2.8l7-17.7H71.4L71.4,18.3z"
	/>
<path class="st0" d="M18.8,23.5H0.5V5.3h18.3V23.5z"/>
<path class="st0" d="M39,23.5H20.7V5.3H39V23.5L39,23.5z"/>
<path class="st0" d="M18.8,43.7H0.5V25.5h18.3V43.7z"/>
<path class="st0" d="M39,43.7H20.7V25.5H39V43.7L39,43.7z"/>
</svg>
