<?xml version="1.0" encoding="utf-8"?>
<!-- Generator: Adobe Illustrator 24.0.0, SVG Export Plug-In . SVG Version: 6.00 Build 0)  -->
<svg version="1.1" id="Layer_1" xmlns="http://www.w3.org/2000/svg" xmlns:xlink="http://www.w3.org/1999/xlink" x="0px" y="0px"
	 viewBox="0 0 79.2 48" style="enable-background:new 0 0 79.2 48;" xml:space="preserve">
<style type="text/css">
	.st0{fill-rule:evenodd;clip-rule:evenodd;fill:#6C757D;}
</style>
<path class="st0" d="M10.4,11.6c-5.1,6-10,13.5-10.1,19.1c0,2.1,0.7,3.9,2.3,5.3c2.3,2,4.9,2.7,7.4,2.7c3.7,0,7.4-1.5,10.3-2.6
	c4.9-1.9,58.5-25.2,58.5-25.2c0.5-0.3,0.4-0.6-0.2-0.4c-0.3,0.1-58.4,15.8-58.4,15.8c-1.1,0.3-2.2,0.5-3.4,0.5
	c-4.5,0-8.4-2.5-8.4-7.7C8.3,17,8.9,14.5,10.4,11.6L10.4,11.6z"/>
</svg>
