<?xml version="1.0" encoding="utf-8"?>
<!-- Generator: Adobe Illustrator 24.0.0, SVG Export Plug-In . SVG Version: 6.00 Build 0)  -->
<svg version="1.1" id="Layer_1" xmlns="http://www.w3.org/2000/svg" xmlns:xlink="http://www.w3.org/1999/xlink" x="0px" y="0px"
	 viewBox="0 0 80 48" style="enable-background:new 0 0 80 48;" xml:space="preserve">
<style type="text/css">
	.st0{fill-rule:evenodd;clip-rule:evenodd;fill:#6C757D;}
</style>
<g>
	<path class="st0" d="M50.16,21.52c-3.14-0.17-5.95-1.16-8.59-2.64c-2.81-1.49-4.13-2.48-4.3-2.64v0.66
		c-0.17,0.17,0.66,1.16,2.15,2.97c1.49,1.82,3.8,3.64,6.77,5.45c2.97,1.82,6.61,2.81,11.07,2.97h4.13c0.99-0.17,1.49-0.66,1.65-1.49
		V15.9c-0.17-0.99-0.66-1.49-1.65-1.65H50.16L50.16,21.52L50.16,21.52L50.16,21.52z M69.16,36.72h4.46v-2.15h-6.77v10.08h7.1v-1.98
		h-4.79v-2.15h4.29v-1.98h-4.29L69.16,36.72L69.16,36.72z M64.2,35.89c-0.99-1.16-2.01-1.49-3.86-1.49
		c-2.56,0.05-4.73,1.82-4.89,5.29c0.16,3.3,1.56,5.01,4.87,5.18c1.49,0.17,3.23-0.55,4.06-1.71l-1.82-1.49
		c-0.5,0.83-1.16,1.16-1.98,1.16c-1.82-0.17-2.69-1.34-2.81-3.14c-0.12-1.8,0.99-3.14,2.81-3.3c0.83,0,1.32,0.33,1.82,0.83
		L64.2,35.89L64.2,35.89z M50.49,40.19l-7.1-6.11v10.57h2.15v-5.62l7.27,6.11V34.57h-2.31L50.49,40.19L50.49,40.19L50.49,40.19z
		 M44.05,13.92v-0.5l-2.48-2.97c-1.49-1.82-3.63-3.8-6.61-5.62c-3.14-1.82-6.77-2.81-11.07-2.97h-4.13
		c-0.99,0.17-1.49,0.66-1.65,1.49v10.9c0.17,0.99,0.66,1.49,1.65,1.65H31V8.63c3.14,0.17,5.95,1.16,8.59,2.64L44.05,13.92
		L44.05,13.92z M20.59,34.57v6.28c0,2.48,1.84,3.96,4.13,3.96s4.3-1.49,4.3-3.96v-6.28H26.7v6.11c0,1.32-1.06,2.15-1.98,2.15
		s-1.98-0.97-1.98-2.15v-6.11L20.59,34.57L20.59,34.57z M6.05,32.75v11.9h2.31v-6.94l8.76,7.43v-11.9h-2.31v6.77L6.05,32.75
		L6.05,32.75z M34.96,34.57L30.5,44.65h2.48L33.64,43h4.3l0.66,1.65h2.48l-4.3-10.08L34.96,34.57L34.96,34.57z M34.3,41.01
		l1.49-3.47l1.32,3.47H34.3z"/>
</g>
</svg>
