<?xml version="1.0" encoding="utf-8"?>
<!-- Generator: Adobe Illustrator 24.0.0, SVG Export Plug-In . SVG Version: 6.00 Build 0)  -->
<svg version="1.1" id="Layer_1" xmlns="http://www.w3.org/2000/svg" xmlns:xlink="http://www.w3.org/1999/xlink" x="0px" y="0px"
	 viewBox="0 0 188.03 48" style="enable-background:new 0 0 188.03 48;" xml:space="preserve">
<style type="text/css">
	.st0{fill:#6C757D;}
</style>
<g>
	<path class="st0" d="M22.54,5.19c-1.8,1.55-2.03,3.66-2.05,5.83c-0.02,3.02-0.01,6.04,0,9.06c0,0.41,0.06,0.83,0.14,1.24
		c0.18,0.91,0.75,1.42,1.68,1.42c3.85,0.01,7.7,0.02,11.56-0.01c1.54-0.01,2.65-0.53,4.08-1.76c0,1.96,0,3.85,0,5.77
		c-0.05-0.01-0.15,0.01-0.19-0.03c-1.36-1.35-3.09-1.63-4.89-1.64c-3.36-0.02-6.71-0.01-10.07,0c-1.52,0-2.04,0.48-2.25,1.99
		c-0.02,0.18-0.05,0.36-0.05,0.54c0.04,3.67,0.07,7.34,0.13,11c0.02,1.46,0.61,2.72,1.72,3.88c-2.08,0-4.02,0-6.1,0
		c1.02-0.99,1.57-2.13,1.72-3.45c0.05-0.46,0.09-0.93,0.09-1.4c0.01-3.49,0.01-6.97,0-10.46c0-1.34-0.47-1.91-1.81-2.05
		c-0.85-0.09-1.71-0.06-2.57-0.06c-2.99,0.02-5.98,0.04-8.97,0.09c-1.67,0.02-3.06,0.7-4.2,1.93c0-2.08,0-4.17,0-6.25
		c1.5,1.55,3.38,1.97,5.47,1.94c3.3-0.05,6.6-0.01,9.91-0.02c1.55,0,2.18-0.65,2.18-2.17c0-3.3-0.04-6.61,0.01-9.91
		c0.03-2.09-0.39-3.97-1.94-5.47C18.27,5.19,20.4,5.19,22.54,5.19z"/>
	<path class="st0" d="M131.28,30.02c-0.25,0.37-0.37,0.78-0.59,0.84c-1.52,0.4-3.06,0.72-4.68,1.08c0-0.58,0-1.17,0-1.93
		c-0.38,0.17-0.62,0.28-0.85,0.4c-0.9,0.47-1.75,1.07-2.69,1.39c-2.22,0.74-3.99-0.27-5.42-1.83c-2.97-3.25-2.25-8.66,1.46-11.43
		c2.04-1.52,4.31-2.1,6.83-1.61c0.17,0.03,0.35,0,0.66,0c0-0.87,0.01-1.72,0-2.57c-0.02-1.01-0.06-2.02-0.09-3.04
		c-0.03-0.77-0.48-1.1-1.2-1.17c-0.15-0.01-0.32-0.02-0.46-0.07c-0.3-0.11-0.87,0.05-0.75-0.52c0.04-0.21,0.44-0.44,0.71-0.5
		c1.41-0.33,2.83-0.61,4.35-0.93c0.02,0.27,0.05,0.56,0.05,0.85c0,6.01,0,12.02,0,18.03c0,0.18,0,0.36,0,0.55
		c0,1.9,0.05,1.95,1.9,2.31C130.66,29.9,130.81,29.93,131.28,30.02z M126,24.23c0-1.28-0.03-2.55,0.01-3.82
		c0.02-0.65-0.24-1.09-0.71-1.47c-2.05-1.64-4.85-1.11-6.1,1.25c-1.21,2.29-1.3,4.69-0.21,7.05c1.18,2.58,3.85,3.36,6.33,1.97
		c0.48-0.27,0.72-0.58,0.7-1.16C125.98,26.78,126,25.51,126,24.23z"/>
	<path class="st0" d="M52.83,22.47c0,2.28-0.04,4.51,0.02,6.74c0.02,0.79,0.62,1.18,1.59,1.33c0.28,0.04,0.59-0.01,0.85,0.09
		c0.26,0.11,0.69,0.3,0.69,0.53c0.01,0.23-0.53,0.41-0.73,0.46c-0.21,0.05-0.36,0.01-0.54,0.01c-2.34,0-4.68-0.01-7.03,0.01
		c-0.64,0-0.86-0.24-0.65-0.9c0.53-0.1,1.09-0.2,1.64-0.31c0.63-0.13,1.01-0.53,1.09-1.16c0.07-0.57,0.15-1.14,0.15-1.7
		c0.01-4.48,0.01-8.95,0.01-13.43c0-0.36,0.01-0.73-0.03-1.09c-0.14-1.46-0.52-1.84-2-1.95c-0.39-0.03-0.73-0.02-0.7-0.57
		c0.03-0.53,0.41-0.44,0.73-0.44c2.86,0,5.72-0.03,8.59,0.02c1.38,0.02,2.74,0.3,3.95,1.02c3.48,2.08,3.64,7.66,0.24,10.21
		c-1.96,1.48-4.16,2.07-6.6,1.36c-0.32-0.09-0.66-0.15-0.99-0.22C53.05,22.46,52.97,22.47,52.83,22.47z M52.79,16.68
		c-0.01,1.1-0.01,1.7,0.01,2.6c0.04,2.11-0.46,2.02,1.86,2.29c1.88,0.22,3.9-0.54,4.76-2.63c0.6-1.46,0.68-2.97,0.25-4.5
		c-0.83-2.96-3.76-3.6-6.05-3.12c-0.54,0.11-0.83,0.49-0.83,1.07C52.79,13.82,52.8,15.58,52.79,16.68z"/>
	<path class="st0" d="M26.86,42.43c-2.11-0.28-3.97-2.13-4.41-4.31c-0.1-0.51-0.17-1.03-0.17-1.54c-0.02-2.76-0.01-5.52-0.01-8.27
		c0-1.1,0.35-1.47,1.44-1.48c2.73-0.02,5.47-0.06,8.2,0.01c3.01,0.07,5.17,1.67,5.97,4.26c0.03,0.09,0.04,0.19,0.08,0.4
		c-0.32,0.02-0.59,0.05-0.86,0.05c-3.1,0-6.19,0.03-9.29-0.01c-0.74-0.01-0.98,0.17-0.97,0.94c0.04,3.04,0.02,6.09,0.02,9.13
		C26.86,41.87,26.86,42.15,26.86,42.43z"/>
	<path class="st0" d="M37.94,16.34c-0.56,2.55-2.71,4.49-5.17,4.56c-3.09,0.09-6.19,0.05-9.29,0.03c-0.93,0-1.21-0.32-1.21-1.24
		c-0.01-2.94-0.07-5.88,0.03-8.82c0.08-2.43,1.27-4.24,3.55-5.25c0.19-0.08,0.39-0.15,0.59-0.21c0.09-0.03,0.2,0.01,0.42,0.02
		c0,0.29,0,0.57,0,0.84c0,2.99,0,5.99,0,8.98c0,1.08,0,1.08,1.12,1.08c3.02,0,6.04,0,9.06,0C37.31,16.34,37.59,16.34,37.94,16.34z"
		/>
	<path class="st0" d="M11.66,42.49c0-0.36,0-0.63,0-0.91c0-3.12-0.02-6.24,0.01-9.37c0.01-0.65-0.2-0.84-0.85-0.83
		c-3.07,0.03-6.14,0.01-9.21,0.01c-0.28,0-0.55,0-0.95,0c0.12-0.42,0.16-0.72,0.28-0.99c0.99-2.28,2.82-3.47,5.23-3.56
		c2.91-0.11,5.82-0.04,8.74-0.03c1.01,0,1.34,0.29,1.35,1.28c0.01,3.07,0.05,6.14-0.04,9.21C16.14,39.76,14.26,41.87,11.66,42.49z"
		/>
	<path class="st0" d="M150.14,16.73c0,0.74,0,1.49,0,2.46c0.56-0.38,0.93-0.68,1.34-0.9c0.95-0.52,1.87-1.23,2.89-1.45
		c2.8-0.59,4.94,1.37,4.99,4.41c0.03,2.24,0.01,4.48,0.01,6.72c0,0.31,0,0.62,0.01,0.94c0.05,1.26,0.29,1.51,1.5,1.8
		c0.22,0.05,0.39,0.34,0.58,0.51c-0.21,0.14-0.42,0.4-0.63,0.4c-1.87,0.03-3.75,0.03-5.62,0c-0.22,0-0.43-0.3-0.65-0.45
		c0.18-0.16,0.34-0.41,0.55-0.46c1.3-0.32,1.52-0.48,1.55-1.83c0.05-2.47,0.07-4.95-0.03-7.41c-0.08-2.02-1.78-3.19-3.72-2.58
		c-0.85,0.26-1.63,0.77-2.38,1.26c-0.23,0.15-0.35,0.61-0.36,0.94c-0.03,2.55-0.02,5.1-0.01,7.65c0,1.45,0.3,1.78,1.72,1.98
		c0.12,0.02,0.25,0.03,0.37,0.05c0.22,0.63,0.04,0.9-0.62,0.89c-1.95-0.02-3.9-0.02-5.86,0c-0.61,0.01-0.8-0.25-0.62-0.87
		c0.4-0.08,0.83-0.15,1.25-0.24c0.64-0.14,1.01-0.55,1.01-1.2c0.01-3.05,0.01-6.09,0-9.14c0-0.8-0.55-1.13-1.24-1.27
		c-0.35-0.07-0.75-0.12-0.61-0.58c0.06-0.21,0.38-0.4,0.62-0.48C147.47,17.48,148.77,17.12,150.14,16.73z"/>
	<path class="st0" d="M83,32.03c-4.1,0-7.25-3.22-7.21-7.38c0.04-4.47,3.24-7.93,7.32-7.92c4.09,0.01,7.19,3.26,7.18,7.52
		C90.29,28.7,87.17,32.03,83,32.03z M87.28,24.96c-0.04-1.77-0.41-4.04-1.73-5.69c-1.62-2.03-4.38-1.86-5.64,0.4
		c-0.49,0.88-0.8,1.93-0.91,2.94c-0.27,2.43,0.09,4.78,1.6,6.81c0.87,1.17,2.06,1.66,3.49,1.42c1.34-0.23,2.18-1.17,2.54-2.41
		C86.63,28.43,87.32,26.73,87.28,24.96z"/>
	<path class="st0" d="M143.12,28.16c0.54,0.38,0.56,0.74,0.07,1.24c-1.32,1.34-2.76,2.51-4.73,2.6c-2.87,0.14-5.06-1.35-6.15-4.01
		c-1.65-4.06,0.35-9.11,4.28-10.79c3.35-1.44,6.9,0.65,7.21,4.23c0.09,1.11-0.2,1.45-1.34,1.52c-2.49,0.16-4.98,0.3-7.47,0.49
		c-0.2,0.01-0.55,0.28-0.54,0.41c0.06,1.5,0.39,2.94,1.36,4.14c1.44,1.8,3.69,2.27,5.74,1.19C142.1,28.9,142.59,28.51,143.12,28.16z
		 M134.64,21.93c1.99,0,3.83,0.02,5.68-0.02c0.2,0,0.53-0.31,0.56-0.5c0.13-1.13-0.24-2.11-1.16-2.82c-0.85-0.66-1.79-0.82-2.77-0.3
		C135.49,19.04,134.97,20.38,134.64,21.93z"/>
	<path class="st0" d="M186.92,28.16c0.54,0.38,0.56,0.74,0.07,1.24c-1.32,1.34-2.76,2.51-4.73,2.6c-2.87,0.14-5.06-1.35-6.15-4.01
		c-1.65-4.06,0.35-9.11,4.27-10.79c3.35-1.44,6.9,0.65,7.21,4.23c0.09,1.11-0.2,1.45-1.34,1.52c-2.49,0.16-4.98,0.3-7.47,0.49
		c-0.2,0.01-0.55,0.28-0.54,0.41c0.06,1.5,0.39,2.94,1.36,4.14c1.44,1.8,3.69,2.27,5.74,1.19C185.89,28.9,186.39,28.51,186.92,28.16
		z M178.43,21.93c1.99,0,3.83,0.02,5.68-0.02c0.2,0,0.53-0.31,0.56-0.5c0.13-1.13-0.24-2.11-1.16-2.82
		c-0.85-0.66-1.79-0.82-2.77-0.3C179.29,19.04,178.76,20.38,178.43,21.93z"/>
	<path class="st0" d="M90.05,17.15c2.48,0,4.66,0,6.88,0c0.2,0.56,0.09,0.86-0.55,0.98c-0.93,0.17-1.12,0.45-0.81,1.27
		c1,2.7,2.04,5.39,3.07,8.08c0.03,0.09,0.12,0.17,0.24,0.33c0.15-0.3,0.29-0.53,0.38-0.78c0.84-2.26,1.66-4.53,2.49-6.8
		c0.07-0.2,0.13-0.4,0.18-0.6c0.2-0.92-0.04-1.33-0.97-1.5c-0.58-0.1-0.87-0.29-0.64-0.97c1.87,0,3.76,0,5.69,0
		c0.2,0.49,0.15,0.86-0.46,0.94c-1,0.13-1.58,0.75-1.94,1.61c-1.52,3.61-3.02,7.24-4.52,10.86c-0.12,0.29-0.17,0.62-0.34,0.86
		c-0.16,0.23-0.44,0.54-0.66,0.54c-0.23,0-0.57-0.29-0.66-0.54c-1.47-3.64-2.91-7.28-4.35-10.93c-0.47-1.19-0.95-2.32-2.47-2.48
		C90.42,18.01,90.3,17.56,90.05,17.15z"/>
	<path class="st0" d="M173.82,27.97c0.65,0.45,0.57,0.84,0.11,1.31c-1.45,1.49-3.02,2.73-5.23,2.74c-3.22,0.01-5.82-2.2-6.44-5.37
		c-1.22-6.33,4.9-10.53,9.1-9.83c0.7,0.12,1.39,0.42,2.01,0.76c0.86,0.48,0.63,1.75-0.05,2.26c-0.45,0.34-0.8,0.16-1.17-0.17
		c-0.81-0.73-1.74-1.2-2.86-1.28c-1.62-0.12-2.9,0.49-3.64,1.9c-1.29,2.47-1.21,4.99,0.32,7.33c1.53,2.33,4.52,2.78,6.79,1.17
		C173.13,28.54,173.46,28.25,173.82,27.97z"/>
	<path class="st0" d="M64.53,30.79c2.07-0.38,2.26-0.59,2.25-2.71c-0.01-2.6-0.06-5.2-0.08-7.8c-0.01-0.84-0.43-1.27-1.26-1.41
		c-0.26-0.05-0.69-0.35-0.72-0.52s0.47-0.4,0.74-0.48c1.26-0.39,2.53-0.73,3.9-1.12c0,1,0,2.01,0,3.03c0.07,0.03,0.13,0.05,0.2,0.08
		c0.14-0.15,0.28-0.31,0.41-0.47c0.58-0.66,1.13-1.36,1.76-1.97c0.61-0.58,1.39-0.79,2.24-0.62c0.76,0.15,1.33,0.75,1.39,1.48
		c0.06,0.72-0.36,1.53-1.05,1.74c-0.3,0.09-0.78,0.01-1.04-0.18c-0.97-0.7-1.74-0.73-2.55,0.14c-0.83,0.89-1.42,1.88-1.37,3.19
		c0.06,1.74,0.01,3.49,0.02,5.23c0.01,1.75,0.3,2.08,2.02,2.3c0.33,0.04,0.79,0,0.64,0.5c-0.06,0.2-0.48,0.42-0.73,0.43
		c-2.05,0.03-4.11,0.01-6.17,0.02C64.55,31.65,64.33,31.42,64.53,30.79z"/>
	<path class="st0" d="M107.65,17.98c0.83-0.19,1.61-0.35,2.39-0.57c0.74-0.2,1.47-0.46,2.3-0.72c0,0.49,0,0.9,0,1.31
		c0,3.43,0,6.87,0.01,10.3c0.01,1.96,0.22,2.19,2.24,2.44c0.23,0.59,0.1,0.9-0.61,0.89c-1.95-0.02-3.9,0.01-5.85-0.03
		c-0.25,0-0.73-0.14-0.74-0.44s0.39-0.42,0.62-0.47c1.37-0.29,1.63-0.58,1.63-2c0-2.71,0-5.41,0-8.12c0-1.16-0.24-1.49-1.4-1.67
		C107.6,18.83,107.5,18.55,107.65,17.98z"/>
	<path class="st0" d="M112.49,12.15c0,0.97-0.76,1.75-1.7,1.75c-0.94-0.01-1.67-0.79-1.66-1.77c0.01-0.94,0.74-1.7,1.65-1.71
		C111.71,10.39,112.49,11.18,112.49,12.15z"/>
	<path class="st0" d="M0.68,16.49c0.41,0,0.72,0,1.02,0c2.99,0,5.99-0.03,8.98,0.02c0.81,0.01,1-0.25,0.99-1.02
		c-0.04-3.04-0.02-6.09-0.02-9.13c0-0.28,0-0.56,0-0.95c0.28,0.05,0.48,0.05,0.66,0.11c2.22,0.74,3.85,2.8,3.91,5.14
		c0.07,3.02,0.05,6.04,0.04,9.05c0,1.01-0.36,1.35-1.39,1.36c-2.78,0.02-5.57,0.05-8.35-0.01C3.74,21,1.62,19.47,0.82,17.11
		C0.77,16.97,0.75,16.82,0.68,16.49z"/>
</g>
</svg>
