<?xml version="1.0" encoding="utf-8"?>
<!-- Generator: Adobe Illustrator 24.0.0, SVG Export Plug-In . SVG Version: 6.00 Build 0)  -->
<svg version="1.1" id="Layer_1" xmlns="http://www.w3.org/2000/svg" xmlns:xlink="http://www.w3.org/1999/xlink" x="0px" y="0px"
	 viewBox="0 0 112 48" style="enable-background:new 0 0 112 48;" xml:space="preserve">
<style type="text/css">
	.st0{fill:#6C757D;}
</style>
<g transform="matrix(2.07675 0 0 -2.07675 -11.153 92.77)">
	<path class="st0" d="M42.2,34.1c-0.2-1.5-1.4-1.5-2.5-1.5h-0.6l0.4,2.8c0,0.2,0.2,0.3,0.3,0.3h0.3c0.8,0,1.5,0,1.8-0.4
		C42.2,35,42.3,34.6,42.2,34.1 M41.7,38h-4.2c-0.3,0-0.5-0.2-0.6-0.5l-1.7-10.7c0-0.2,0.1-0.4,0.3-0.4c0,0,0,0,0.1,0h2.1
		c0.2,0,0.4,0.1,0.4,0.3l0.5,3c0,0.3,0.3,0.5,0.6,0.5h1.3c2.7,0,4.3,1.3,4.7,4c0.2,1.1,0,2.1-0.5,2.7C44.2,37.6,43.1,38,41.7,38"/>
	<path class="st0" d="M12.5,34.1c-0.2-1.5-1.4-1.5-2.5-1.5H9.4l0.4,2.8c0,0.2,0.2,0.3,0.3,0.3h0.3c0.8,0,1.5,0,1.8-0.4
		C12.5,35,12.6,34.6,12.5,34.1 M12,38H7.8c-0.3,0-0.5-0.2-0.6-0.5L5.5,26.8c0-0.2,0.1-0.4,0.3-0.4c0,0,0,0,0.1,0h2
		c0.3,0,0.5,0.2,0.6,0.5L9,29.8c0,0.3,0.3,0.5,0.6,0.5h1.3c2.7,0,4.3,1.3,4.7,4c0.2,1.1,0,2.1-0.5,2.7C14.5,37.6,13.4,38,12,38
		 M21.7,30.2c-0.2-1.1-1.1-1.9-2.2-1.9c-0.6,0-1,0.2-1.3,0.5s-0.4,0.8-0.3,1.4c0.2,1.1,1.1,1.9,2.2,1.9c0.6,0,1-0.2,1.3-0.5
		C21.7,31.3,21.8,30.8,21.7,30.2 M24.5,34.1h-2c-0.2,0-0.3-0.1-0.3-0.3l-0.1-0.5L22,33.5c-0.4,0.6-1.4,0.8-2.4,0.8
		c-2.2,0-4.1-1.7-4.4-4c-0.2-1.2,0.1-2.3,0.7-3.1c0.6-0.7,1.5-1,2.5-1c1.8,0,2.8,1.1,2.8,1.1l-0.1-0.6c0-0.2,0.1-0.4,0.3-0.4
		c0,0,0,0,0.1,0h1.8c0.3,0,0.5,0.2,0.6,0.5l1.1,6.8C24.9,33.9,24.7,34.1,24.5,34.1L24.5,34.1"/>
	<path class="st0" d="M51.4,30.2c-0.2-1.1-1.1-1.9-2.2-1.9c-0.6,0-1,0.2-1.3,0.5s-0.4,0.8-0.3,1.4c0.2,1.1,1.1,1.9,2.2,1.9
		c0.6,0,1-0.2,1.3-0.5C51.4,31.3,51.5,30.8,51.4,30.2 M54.2,34.1h-2c-0.2,0-0.3-0.1-0.3-0.3l-0.1-0.6l-0.1,0.2
		c-0.4,0.6-1.4,0.8-2.4,0.8c-2.2,0-4.1-1.7-4.4-4c-0.2-1.2,0.1-2.3,0.7-3.1c0.6-0.7,1.5-1,2.5-1c1.8,0,2.8,1.1,2.8,1.1l-0.1-0.6
		c0-0.2,0.1-0.4,0.3-0.4c0,0,0,0,0.1,0H53c0.3,0,0.5,0.2,0.6,0.5l1.1,6.8C54.5,33.9,54.4,34.1,54.2,34.1L54.2,34.1"/>
	<path class="st0" d="M35.1,34.1h-2c-0.2,0-0.4-0.1-0.5-0.3l-2.8-4.1l-1.2,3.9C28.5,33.8,28.3,34,28,34h-2c-0.2,0-0.3-0.2-0.3-0.3
		v-0.1l2.2-6.5l-2.1-2.9c-0.1-0.2-0.1-0.4,0.1-0.5c0.1,0,0.1-0.1,0.2-0.1h2c0.2,0,0.4,0.1,0.5,0.2l6.7,9.6c0.1,0.2,0.1,0.4-0.1,0.5
		C35.2,34.1,35.2,34.1,35.1,34.1"/>
	<path class="st0" d="M56.5,37.7l-1.7-10.9c0-0.2,0.1-0.4,0.3-0.4c0,0,0,0,0.1,0h1.7c0.3,0,0.5,0.2,0.6,0.5l1.6,10.7
		c0,0.2-0.1,0.4-0.3,0.4c0,0,0,0-0.1,0h-1.9C56.7,38,56.5,37.8,56.5,37.7"/>
</g>
</svg>
