<?xml version="1.0" encoding="utf-8"?>
<!-- Generator: Adobe Illustrator 24.0.0, SVG Export Plug-In . SVG Version: 6.00 Build 0)  -->
<svg version="1.1" id="Layer_1" xmlns="http://www.w3.org/2000/svg" xmlns:xlink="http://www.w3.org/1999/xlink" x="0px" y="0px"
	 viewBox="0 0 32 48" style="enable-background:new 0 0 32 48;" xml:space="preserve">
<style type="text/css">
	.st0{fill:#6C757D;}
</style>
<g>
	<g>
		<path class="st0" d="M19,38.8c-5.3,0-10.4,0.6-14.6,1.5l0.2,0.5c4-0.7,8.7-1.2,13.7-1c3.3,0.1,6.4,0.5,9.3,1l0.5-1.5
			C25.3,39,22.2,38.8,19,38.8"/>
	</g>
	<g>
		<path class="st0" d="M9.3,10.2C21.1,2.9,20,2.1,19.6,1.4l0,0c0.9,0.7,3,3.9-6.7,9.9c-8.8,5.5-9.4,8.9-5.5,12.4c1,0.9,1.3,1,3,2
			l-1.3,1.6C7.3,26.1-5.4,19.5,9.3,10.2"/>
	</g>
	<g>
		<path class="st0" d="M17.9,21.2c-11.6-7.3-10.6-8-10.2-8.6l0,0c-0.9,0.7-2.9,3.8,6.7,9.7c9.2,5.7,8.2,9.3,4.8,14.6
			c0,0,0,0.1,0,0.1C23.8,33.9,27.5,27.2,17.9,21.2"/>
	</g>
	<g>
		<path class="st0" d="M11.3,23.1L11.3,23.1c-1.5-3.2-0.9-5.2,5.8-9.4c10.4-6.4,4.3-12.3,2.6-13.6l0,0c1.9,1.1,9.9,8-1,14.8
			C13.8,18.1,10.8,19.9,11.3,23.1"/>
	</g>
	<g>
		<path class="st0" d="M20.4,29c-6,3.7-8.2,6.6-6.4,9c-0.5-3.3,4.1-4.7,8.9-7.7c14.2-9,4-17.1,1.3-18.5l0,0
			C26.4,13.4,33.7,20.8,20.4,29"/>
	</g>
	<g>
		<path class="st0" d="M18.6,36.4L18.6,36.4c1.5-3.3-2.2-7-8.9-11.1c-10.4-6.4-3.9-12.5-2.2-13.8L7,11.7c-2.3,1.7-9.9,8,0.9,14.8
			C12.9,29.7,19,33.1,18.6,36.4"/>
	</g>
	<g>
		<path class="st0" d="M14.9,22c10.9-7.3,9.8-8.4,9.4-9l0,0c0.8,0.7,3.2,3.9-5.8,9.9c-10.4,7-10.3,9.4-4.9,14.3L14,38
			C11.7,36.7,1.4,31,14.9,22"/>
	</g>
	<g>
		<path class="st0" d="M7.9,48C6.3,48,5,46.7,5,45.1c0-1.6,1.3-2.9,2.9-2.9c1.6,0,2.9,1.3,2.9,2.9C10.8,46.7,9.6,48,7.9,48
			 M7.9,43.2c-1,0-1.7,0.8-1.7,1.9S6.9,47,7.9,47c1,0,1.7-0.8,1.7-1.9S8.9,43.2,7.9,43.2"/>
	</g>
	<g>
		<polygon class="st0" points="15.3,47.9 15.3,45.5 13,45.5 13,47.9 11.8,47.9 11.8,42.3 13,42.3 13,44.6 15.3,44.6 15.3,42.3 
			16.5,42.3 16.5,47.9 		"/>
	</g>
	<g>
		<path class="st0" d="M19.7,43.2c-0.4,0-0.7,0.2-0.7,0.6c0,0.4,0.5,0.6,1,0.7c0.8,0.3,1.7,0.6,1.7,1.8c0,1.2-1.1,1.7-2.1,1.7
			c-0.9,0-1.5-0.3-2.1-0.9l0.8-0.7c0.5,0.4,0.8,0.7,1.4,0.7c0.4,0,0.9-0.2,0.9-0.7c0-0.5-0.5-0.7-1.1-0.9c-0.7-0.3-1.5-0.6-1.5-1.7
			c0-1.1,0.9-1.6,1.8-1.6c0.7,0,1.3,0.2,1.8,0.7l-0.7,0.8C20.6,43.5,20.1,43.2,19.7,43.2"/>
	</g>
	<g>
		<path class="st0" d="M27.1,45.3c0,1.8-0.7,2.7-2.3,2.7c-1.6,0-2.2-1-2.2-2.7v-2.9h1.1v3.1c0,1.1,0.4,1.6,1.1,1.6s1.1-0.5,1.1-1.6
			v-3.1h1.1L27.1,45.3L27.1,45.3z"/>
	</g>
</g>
</svg>
