<?xml version="1.0" encoding="utf-8"?>
<!-- Generator: Adobe Illustrator 24.0.0, SVG Export Plug-In . SVG Version: 6.00 Build 0)  -->
<svg version="1.1" id="Layer_1" xmlns="http://www.w3.org/2000/svg" xmlns:xlink="http://www.w3.org/1999/xlink" x="0px" y="0px"
	 viewBox="0 0 92.56 48" style="enable-background:new 0 0 92.56 48;" xml:space="preserve">
<style type="text/css">
	.st0{fill:#6C757D;}
</style>
<g>
	<path class="st0" d="M73.16,27.35c0.73,0,1.3-0.22,1.7-0.65c0.41-0.43,0.61-1.03,0.61-1.77v-1.02c0-0.9-0.2-1.55-0.58-1.93
		c-0.39-0.38-0.97-0.58-1.73-0.58c-0.75,0-1.33,0.19-1.72,0.58c-0.39,0.38-0.59,1.03-0.59,1.93v1.02c0,0.75,0.2,1.33,0.61,1.77
		C71.86,27.13,72.43,27.35,73.16,27.35"/>
	<path class="st0" d="M43.77,27.35c0.74,0,1.29-0.21,1.7-0.65c0.41-0.44,0.62-1.02,0.62-1.77v-1.02c0-0.9-0.19-1.55-0.58-1.93
		c-0.39-0.38-0.97-0.58-1.73-0.58c-0.75,0-1.33,0.19-1.72,0.58c-0.39,0.38-0.58,1.03-0.58,1.93v1.02c0,0.74,0.2,1.34,0.61,1.77
		C42.47,27.13,43.04,27.35,43.77,27.35"/>
	<path class="st0" d="M70.83,31.96c-0.44,0-0.71,0.39-0.71,0.97c0,0.64,0.3,1,0.74,1s0.72-0.44,0.72-0.98
		C71.58,32.35,71.29,31.96,70.83,31.96"/>
	<path class="st0" d="M44.23,31.96c-0.44,0-0.71,0.39-0.71,0.97c0,0.64,0.3,1,0.74,1c0.44,0,0.72-0.44,0.72-0.98
		C44.98,32.35,44.7,31.96,44.23,31.96"/>
	<path class="st0" d="M63.95,31.93c-0.39,0-0.62,0.27-0.68,0.74h1.37C64.62,32.27,64.43,31.93,63.95,31.93"/>
	<path class="st0" d="M91.31,3.2L1.35,9.23c-0.49,0.03-0.85,0.46-0.8,0.95l2.76,26.28c0.05,0.49-0.02,1.28-0.17,1.75l-1.29,4.18
		c-0.15,0.47,0.11,0.7,0.56,0.52l6.92-2.87c0.46-0.19,1.23-0.32,1.72-0.28l76.44,4.91c0.49,0.03,0.93-0.34,0.98-0.84l3.65-39.79
		C92.16,3.54,91.79,3.17,91.31,3.2 M24.29,25.46c0,1.1-0.44,1.99-1.32,2.64c-0.86,0.64-2.08,0.97-3.63,0.97
		c-1.53,0-2.74-0.32-3.6-0.97c-0.88-0.65-1.32-1.54-1.32-2.64v-0.19h1.87v0.19c0,0.53,0.25,0.95,0.77,1.26
		c0.53,0.32,1.3,0.49,2.28,0.49s1.76-0.17,2.31-0.49c0.53-0.32,0.79-0.73,0.79-1.26V25.2c0-0.6-0.36-1.01-1.1-1.25L17,22.49
		c-0.71-0.22-1.27-0.57-1.65-1.03c-0.39-0.46-0.58-1.01-0.58-1.63v-0.29c0-2.24,1.48-3.39,4.41-3.43h0.19
		c2.98,0,4.54,1.09,4.63,3.23l0.01,0.16h-1.88l-0.02-0.14c-0.1-0.94-1-1.4-2.75-1.4h-0.16c-1.75,0.03-2.6,0.55-2.6,1.58v0.29
		c0,0.17,0.08,0.32,0.24,0.49c0.17,0.17,0.4,0.31,0.69,0.4l4.38,1.46c0.72,0.24,1.3,0.62,1.72,1.13c0.43,0.52,0.64,1.15,0.64,1.89
		L24.29,25.46L24.29,25.46z M29.5,21.72h-1.95v2.18v0.03v1.02c0,0.74,0.2,1.33,0.61,1.77c0.31,0.33,0.71,0.53,1.21,0.62l0.13,0.02
		v1.77l-0.17-0.01c-1.02-0.09-1.86-0.47-2.49-1.13c-0.73-0.77-1.11-1.78-1.11-3.03v-8.53h1.82l0,3.43h1.95L29.5,21.72L29.5,21.72z
		 M38.21,24.84c0,1.52-0.28,2.63-0.83,3.28c-0.53,0.63-1.4,0.97-2.59,1v0l-0.16,0l-0.27-0.01c-1.19-0.03-2.06-0.37-2.59-1
		c-0.56-0.66-0.83-1.76-0.83-3.28v-4.97h1.79v4.97c0,0.94,0.14,1.61,0.41,1.98c0.26,0.35,0.73,0.53,1.4,0.53h0.08
		c0.67,0,1.13-0.18,1.39-0.53c0.27-0.37,0.41-1.03,0.41-1.98v-4.97h1.79L38.21,24.84L38.21,24.84z M39.65,16.43h1.82v4.09
		c0.57-0.59,1.34-0.88,2.3-0.88c2.76,0,4.16,1.44,4.16,4.28v1.02c0,1.25-0.38,2.27-1.12,3.04c-0.74,0.77-1.77,1.16-3.04,1.16
		c-1.26,0-2.27-0.39-3.01-1.16c-0.74-0.77-1.11-1.79-1.11-3.04V16.43z M41.69,34.42H41.1v-1.55l-1.41-2.37h0.69L41,31.57
		c0.13,0.24,0.34,0.63,0.4,0.78c0.07-0.15,0.26-0.52,0.41-0.77l0.62-1.09h0.68l-1.41,2.37L41.69,34.42L41.69,34.42z M44.24,34.48
		c-0.74,0-1.3-0.61-1.3-1.53c0-0.97,0.57-1.54,1.31-1.54c0.75,0,1.31,0.6,1.31,1.52C45.57,33.91,44.99,34.48,44.24,34.48
		 M48.62,34.42h-0.58v-0.28c-0.14,0.21-0.44,0.34-0.74,0.34c-0.68,0-1.05-0.45-1.05-1.32v-1.69h0.58v1.67
		c0,0.59,0.22,0.81,0.61,0.81c0.39,0,0.61-0.27,0.61-0.75v-1.72h0.58V34.42z M51.08,32.08c-0.12-0.07-0.25-0.11-0.44-0.11
		c-0.37,0-0.58,0.26-0.58,0.76v1.68h-0.58v-2.95h0.58v0.28c0.13-0.2,0.38-0.34,0.67-0.34c0.24,0,0.38,0.04,0.5,0.12L51.08,32.08z
		 M51.23,29.02h-1.89V16.4h1.89v5.26H57V16.4h1.89v12.62H57V23.5h-5.77V29.02z M54.81,32h-0.73v1.6c0,0.28,0.09,0.35,0.3,0.35
		c0.15,0,0.32-0.06,0.43-0.12l-0.07,0.51c-0.14,0.08-0.34,0.13-0.57,0.13c-0.41,0-0.66-0.25-0.66-0.78V32h-0.42v-0.53h0.42v-0.84
		l0.57-0.3v1.15h0.73V32z M56.2,34.42h-0.58v-2.95h0.58V34.42z M55.92,31.09c-0.21,0-0.38-0.17-0.38-0.37
		c0-0.21,0.17-0.38,0.38-0.38c0.2,0,0.37,0.17,0.37,0.38C56.29,30.92,56.12,31.09,55.92,31.09 M58.23,33.93
		c0.28,0,0.44-0.12,0.67-0.37l0.37,0.37c-0.23,0.29-0.52,0.55-1.06,0.55c-0.72,0-1.27-0.61-1.27-1.52c0-0.97,0.57-1.54,1.29-1.54
		c0.43,0,0.77,0.17,1.04,0.5l-0.34,0.41c-0.24-0.25-0.45-0.36-0.72-0.36c-0.42,0-0.69,0.38-0.69,0.98
		C57.53,33.51,57.77,33.93,58.23,33.93 M61.69,34.42l-0.65-1.46l-0.45,0.59v0.87h-0.58v-3.79l0.58-0.3v1.86
		c0,0.18-0.01,0.48-0.01,0.63c0.08-0.12,0.23-0.34,0.32-0.48l0.61-0.86h0.66l-0.75,0.99l0.88,1.96L61.69,34.42L61.69,34.42z
		 M65.21,33.15h-1.95c0.06,0.57,0.38,0.81,0.74,0.81c0.25,0,0.44-0.09,0.64-0.23l0.34,0.37c-0.26,0.25-0.57,0.39-1.02,0.39
		c-0.69,0-1.27-0.56-1.27-1.53c0-1,0.53-1.54,1.29-1.54c0.84,0,1.24,0.68,1.24,1.48C65.23,32.99,65.22,33.09,65.21,33.15 M67.38,32
		h-0.73v1.6c0,0.28,0.09,0.35,0.3,0.35c0.15,0,0.32-0.06,0.43-0.12l-0.07,0.51c-0.14,0.08-0.34,0.13-0.57,0.13
		c-0.41,0-0.66-0.25-0.66-0.78V32h-0.42v-0.53h0.42v-0.84l0.57-0.3v1.15h0.73L67.38,32L67.38,32z M67.59,24.84
		c0,1.52-0.28,2.63-0.83,3.28c-0.53,0.63-1.4,0.97-2.59,1v0l-0.16,0l-0.27-0.01c-1.19-0.03-2.06-0.37-2.59-1
		c-0.56-0.66-0.83-1.76-0.83-3.28v-4.97h1.79v4.97c0,0.94,0.14,1.61,0.41,1.98c0.26,0.35,0.73,0.53,1.4,0.53h0.08
		c0.67,0,1.13-0.18,1.4-0.53c0.27-0.37,0.41-1.04,0.41-1.98v-4.97h1.79L67.59,24.84L67.59,24.84z M69.03,16.43h1.82v4.09
		c0.57-0.59,1.34-0.89,2.3-0.89c2.76,0,4.16,1.44,4.16,4.28v1.02c0,1.25-0.38,2.27-1.12,3.04c-0.74,0.77-1.76,1.16-3.04,1.16
		c-1.26,0-2.27-0.39-3.01-1.16c-0.74-0.77-1.11-1.79-1.11-3.04L69.03,16.43L69.03,16.43z M70.83,34.48c-0.74,0-1.3-0.61-1.3-1.53
		c0-0.97,0.57-1.54,1.31-1.54c0.75,0,1.31,0.6,1.31,1.52C72.16,33.91,71.59,34.48,70.83,34.48 M75.22,34.42h-0.58v-0.28
		c-0.15,0.21-0.44,0.34-0.74,0.34c-0.68,0-1.05-0.45-1.05-1.32v-1.69h0.58v1.67c0,0.59,0.22,0.81,0.61,0.81
		c0.39,0,0.61-0.27,0.61-0.75v-1.72h0.58L75.22,34.42L75.22,34.42z M77.55,32h-0.73v1.6c0,0.28,0.09,0.35,0.3,0.35
		c0.15,0,0.32-0.06,0.43-0.12l-0.07,0.51c-0.14,0.08-0.34,0.13-0.57,0.13c-0.41,0-0.66-0.25-0.66-0.78V32h-0.42v-0.53h0.42v-0.84
		l0.57-0.3v1.15h0.73L77.55,32L77.55,32z"/>
</g>
</svg>
