<?xml version="1.0" encoding="utf-8"?>
<!-- Generator: Adobe Illustrator 24.0.0, SVG Export Plug-In . SVG Version: 6.00 Build 0)  -->
<svg version="1.1" id="Layer_1" xmlns="http://www.w3.org/2000/svg" xmlns:xlink="http://www.w3.org/1999/xlink" x="0px" y="0px"
	 viewBox="0 0 173.37 48" style="enable-background:new 0 0 173.37 48;" xml:space="preserve">
<style type="text/css">
	.st0{fill:#6C757D;}
</style>
<g>
	<g>
		<path class="st0" d="M30.86,18.39c-5.58-0.01-10.09,3.92-10.09,10.11c-0.01,6.2,4.48,10.2,10.08,10.2
			c5.59,0.01,10.08-3.97,10.09-10.18C40.94,22.31,36.44,18.4,30.86,18.39z M30.85,33.36c-2.4,0-4.32-1.73-4.32-4.85
			c0-3.12,1.87-4.77,4.33-4.77c2.46,0,4.28,1.63,4.28,4.77C35.13,31.67,33.25,33.36,30.85,33.36z M19.55,30.45
			c0,4.55-3.52,8.26-10.28,8.25c-3.27,0-5.99-0.73-8.72-1.8l1.16-5.46c2.5,1.15,4.89,1.87,7.49,1.87c2.83,0,4.2-0.89,4.21-2.58
			c0-1.39-1.05-1.91-4.66-3.02c-1.23-0.36-2.34-0.74-3.3-1.13c-3.27-1.32-4.79-3.6-4.79-6.96c0-4.53,3.67-8.08,10.32-8.08
			c2.85,0,5.2,0.59,7.67,1.52l-1.16,5.41c-2.14-0.81-4.25-1.42-6.63-1.42c-2.89,0-4.13,0.77-4.13,2.43c0,1.42,0.99,1.92,4.21,2.83
			c1.22,0.34,2.37,0.71,3.39,1.1C17.46,24.61,19.56,26.74,19.55,30.45z M54.31,18.98h5.63v18.45c-3.14,0.8-5.82,1.26-8.7,1.26
			c-5.93-0.01-8.85-2.31-8.84-7.52l0.01-12.19h5.63v11.64c0,1.9,0.53,2.91,3.46,2.91c1.05,0,1.97-0.14,2.81-0.29L54.31,18.98z
			 M94.05,25.93l-0.01,12.38h-5.65l0.01-11.78c0-2.01-0.6-2.83-2.75-2.83c-1.36,0-2.51,0.38-3.5,0.76L82.13,38.3h-5.65V10.23h5.67
			v9.1c1.23-0.42,2.96-0.85,4.77-0.85C91.81,18.49,94.05,20.89,94.05,25.93z M118.07,38.31h-5.09l-3.66-10.94l-3.87,10.94h-5.06
			l-6.06-19.32h5.87l3.16,10.93l3.82-10.93h4.72l3.57,11.07l3.45-11.07h6L118.07,38.31z M158.82,32.4c0,3.56-2.47,6.36-7.97,6.35
			c-2.47,0-4.7-0.37-7.07-1.05l0.86-4.74c1.92,0.76,3.78,1.08,5.77,1.08c1.62,0,2.82-0.4,2.82-1.27c0-0.92-0.99-1.16-3.03-1.75
			c-0.98-0.31-1.85-0.62-2.58-0.94c-2.61-1.1-3.87-2.74-3.86-5.33c0-3.65,2.82-6.32,8.05-6.32c2.23,0,4.2,0.38,6.18,0.82l-0.88,4.77
			c-1.8-0.52-3.48-0.9-5.31-0.9c-1.7,0-2.45,0.56-2.45,1.4c0,0.8,0.75,1.12,2.68,1.63c0.96,0.28,1.84,0.56,2.63,0.83
			C157.78,28.09,158.83,29.96,158.82,32.4z M142.64,27.78c0-5.2-2.88-9.36-8.71-9.36c-5.83-0.01-9.88,4.06-9.89,10.47
			c-0.01,5.97,3.6,9.84,9.98,9.85c2.85,0,5.18-0.72,7.57-1.74l-0.83-4.57c-1.8,0.81-3.67,1.44-5.84,1.44
			c-3.29,0-4.64-1.44-4.86-3.44l12.39,0.01C142.46,30.44,142.64,28.22,142.64,27.78z M130.15,26.22c0.35-1.69,1.23-3.24,3.55-3.24
			c2.39,0,3.11,1.88,3.17,3.24L130.15,26.22z M172.76,37.96c-1.5,0.43-2.88,0.75-4.56,0.75c-5.49-0.01-6.53-3.73-6.53-7.06
			l0.01-7.83l-2.68,0v-4.83h2.68v-5.06h5.64v5.06h5.16v4.84l-5.16,0l-0.01,7.47c0,1.51,0.26,2.46,2.27,2.46
			c0.83,0,1.56-0.16,2.37-0.39L172.76,37.96z M75.21,37.96c-1.5,0.43-2.88,0.75-4.56,0.75c-5.49-0.01-6.53-3.73-6.53-7.06l0.01-7.83
			l-2.68,0v-4.83h2.68v-5.06h5.64v5.06h5.16v4.84l-5.16,0l-0.01,7.47c0,1.51,0.26,2.46,2.27,2.46c0.83,0,1.56-0.16,2.37-0.39
			L75.21,37.96z"/>
	</g>
</g>
</svg>
