<?xml version="1.0" encoding="utf-8"?>
<!-- Generator: Adobe Illustrator 24.0.0, SVG Export Plug-In . SVG Version: 6.00 Build 0)  -->
<svg version="1.1" id="Layer_1" xmlns="http://www.w3.org/2000/svg" xmlns:xlink="http://www.w3.org/1999/xlink" x="0px" y="0px"
	 viewBox="0 0 135.7 48" style="enable-background:new 0 0 135.7 48;" xml:space="preserve">
<style type="text/css">
	.st0{fill-rule:evenodd;clip-rule:evenodd;fill:#6C757D;}
</style>
<g>
	<path class="st0" d="M0.4,7.1v27l22.8,7.8l22.9-7.8v-27H0.4z M23.2,33.2h-7v-2.4c-1.4,1.9-3.4,2.9-6.2,2.9c-3.4,0-6.6-2.1-6.6-6.5
		v-13h7.3v10c0,2.1,0.3,3.7,2.4,3.7c1.2,0,2.8-0.6,2.8-3.7v-10h7.3L23.2,33.2L23.2,33.2z M36.7,19.8c-0.1-0.6-0.3-1.1-0.9-1.4
		c-0.4-0.4-1-0.6-1.7-0.6c-0.9,0-2.1,0.3-2.1,1.5c0,0.6,0.4,0.9,0.9,1c1.2,0.5,4,0.6,6.4,1.5c2.3,0.7,4.4,2.1,4.4,5.2
		c0,5.3-5,6.7-9.6,6.7c-4.5,0-9.4-1.8-9.5-6.7h6.9c0.1,0.7,0.4,1.2,1,1.7c0.3,0.3,1,0.5,1.9,0.5c0.9,0,2.5-0.3,2.5-1.4
		c0-1.1-0.7-1.4-4.1-2c-5.5-1-7.8-2.8-7.8-6c0-4.8,5.2-6,9-6c4.2,0,9.1,1.1,9.2,6L36.7,19.8L36.7,19.8z"/>
	<path class="st0" d="M48.6,7.2h7.2v9.1h0.1c1.1-1.6,3-2.5,5.2-2.5c6.4,0,8.1,5.3,8.1,9.8c0,4.8-2.6,10.1-8,10.1
		c-3.5,0-4.7-1.4-5.6-2.6h-0.1v2h-7L48.6,7.2L48.6,7.2L48.6,7.2z M58.8,19.1c-2.6,0-3.2,2.4-3.2,4.7s0.6,4.8,3.2,4.8
		c2.6,0,3.2-2.5,3.2-4.8S61.4,19.1,58.8,19.1L58.8,19.1z M89.4,29c0,1.5,0.1,3,0.9,4.2h-7.3c-0.2-0.5-0.3-1.3-0.3-1.8h-0.1
		c-1.6,1.8-3.8,2.4-6.1,2.4c-3.6,0-6.6-1.8-6.6-5.8c0-5.9,7-5.8,10.7-6.5c1-0.2,2-0.4,2-1.7c0-1.3-1.2-1.8-2.4-1.8
		c-2.2,0-2.7,1.1-2.7,2h-6.7c0.2-5.3,5.2-6.2,9.7-6.2c9.1,0,9,3.7,9,7.4L89.4,29L89.4,29z M82.5,24.7c-0.9,0.4-1.8,0.8-2.8,0.9
		c-1.7,0.4-2.5,0.8-2.5,2.1c0,0.9,1,1.7,2.2,1.7c1.7,0,2.9-0.9,3.1-2.9L82.5,24.7L82.5,24.7L82.5,24.7z M92,14.3H99v2.4h0.1
		c1.4-1.9,3.3-2.8,6.2-2.8c3.4,0,6.5,2.1,6.5,6.4v13h-7.2v-9.9c0-2.2-0.3-3.7-2.4-3.7c-1.3,0-2.9,0.6-2.9,3.6v10H92L92,14.3L92,14.3
		z M114.4,7.2h7.2v12.6l4.6-5.6h8.2l-6.7,7.2l7.8,11.8h-8.7l-3.8-6.8l-1.3,1.4v5.4h-7.2V7.2z"/>
</g>
</svg>
