<?xml version="1.0" encoding="utf-8"?>
<!-- Generator: Adobe Illustrator 24.0.0, SVG Export Plug-In . SVG Version: 6.00 Build 0)  -->
<svg version="1.1" id="Layer_1" xmlns="http://www.w3.org/2000/svg" xmlns:xlink="http://www.w3.org/1999/xlink" x="0px" y="0px"
	 viewBox="0 0 111.8 48" style="enable-background:new 0 0 111.8 48;" xml:space="preserve">
<style type="text/css">
	.st0{fill:#6C757D;}
</style>
<g>
	<path class="st0" d="M42.5,7.2L28,41.9h-9.5l-7.2-27.7c-0.5-1.7-0.8-2.3-2.2-3.1C7,10,3.5,8.8,0.4,8.2l0.2-1h15.3
		c2,0,3.7,1.3,4.1,3.5l3.8,20.1l9.4-23.6H42.5L42.5,7.2z M79.7,30.5c0-9.2-12.7-9.6-12.6-13.8c0-1.3,1.2-2.6,3.8-2.9
		c1.3-0.2,4.9-0.3,8.8,1.5L81.4,8c-2.2-0.8-4.9-1.5-8.4-1.5c-8.9,0-15.1,4.7-15.2,11.5c-0.1,5,4.5,7.7,7.8,9.5
		c3.5,1.7,4.7,2.8,4.7,4.3c0,2.3-2.8,3.3-5.4,3.4c-4.5,0.1-7.1-1.3-9.2-2.2l-1.6,7.6c2.1,1,5.9,1.8,10,1.9
		C73.5,42.4,79.6,37.8,79.7,30.5 M103.1,41.9h8.3l-7.3-34.7h-7.7c-1.7,0-3.2,1-3.8,2.5L79.2,41.9h9.5l1.9-5.2h11.5L103.1,41.9z
		 M93.1,29.6l4.7-13.1l2.7,13.1H93.1z M55.3,7.2L48,42h-9l7.4-34.7C46.3,7.2,55.3,7.2,55.3,7.2z"/>
</g>
</svg>
