<?xml version="1.0" encoding="utf-8"?>
<!-- Generator: Adobe Illustrator 23.1.1, SVG Export Plug-In . SVG Version: 6.00 Build 0)  -->
<svg version="1.1" id="Layer_1" xmlns="http://www.w3.org/2000/svg" xmlns:xlink="http://www.w3.org/1999/xlink" x="0px" y="0px"
	 viewBox="0 0 24 24" style="enable-background:new 0 0 24 24;" xml:space="preserve">
<style type="text/css">
	.st0{fill:#CC3333;}
</style>
<path class="st0" d="M16.2,6.3l-9.9,9.9c-0.4,0.4-0.4,1,0,1.4c0.4,0.4,1,0.4,1.4,0l9.9-9.9c0.4-0.4,0.4-1,0-1.4
	C17.3,6,16.6,6,16.2,6.3z"/>
<path class="st0" d="M17.7,16.2L7.8,6.3C7.4,6,6.7,6,6.3,6.3C6,6.7,6,7.4,6.3,7.8l9.9,9.9c0.4,0.4,1,0.4,1.4,0
	C18,17.3,18,16.6,17.7,16.2z"/>
</svg>
