<?xml version="1.0" encoding="utf-8"?>
<!-- Generator: Adobe Illustrator 23.1.1, SVG Export Plug-In . SVG Version: 6.00 Build 0)  -->
<svg version="1.1" id="Layer_1" xmlns="http://www.w3.org/2000/svg" xmlns:xlink="http://www.w3.org/1999/xlink" x="0px" y="0px"
	 viewBox="0 0 59 40.9" style="enable-background:new 0 0 59 40.9;" xml:space="preserve">
<style type="text/css">
	.st0{fill:#EE3C24;}
</style>
<g id="_x22_d_x22__1_">
	<g>
		<g>
			<path class="st0" d="M42.4,15.7c0,0.2-0.1,0.3-0.3,0.3h-1c-0.2,0-0.3-0.1-0.3-0.3v-1c0-0.2,0.1-0.3,0.3-0.3h1
				c0.2,0,0.3,0.1,0.3,0.3V15.7z"/>
		</g>
		<g>
			<path class="st0" d="M45.6,15.7c0,0.2-0.1,0.3-0.3,0.3h-1c-0.2,0-0.3-0.1-0.3-0.3v-1c0-0.2,0.1-0.3,0.3-0.3h1
				c0.2,0,0.3,0.1,0.3,0.3V15.7z"/>
		</g>
		<g>
			<path class="st0" d="M52.2,15.7c0,0.2-0.1,0.3-0.3,0.3h-1c-0.2,0-0.3-0.1-0.3-0.3v-1c0-0.2,0.1-0.3,0.3-0.3h1
				c0.2,0,0.3,0.1,0.3,0.3V15.7z"/>
		</g>
		<g>
			<path class="st0" d="M55.4,15.7c0,0.2-0.1,0.3-0.3,0.3h-1c-0.2,0-0.3-0.1-0.3-0.3v-1c0-0.2,0.1-0.3,0.3-0.3h1
				c0.2,0,0.3,0.1,0.3,0.3V15.7z"/>
		</g>
		<g>
			<path class="st0" d="M52.2,12.6c0,0.2-0.1,0.3-0.3,0.3h-1c-0.2,0-0.3-0.1-0.3-0.3v-1c0-0.2,0.1-0.3,0.3-0.3h1
				c0.2,0,0.3,0.1,0.3,0.3V12.6z"/>
		</g>
		<g>
			<path class="st0" d="M55.4,12.6c0,0.2-0.1,0.3-0.3,0.3h-1c-0.2,0-0.3-0.1-0.3-0.3v-1c0-0.2,0.1-0.3,0.3-0.3h1
				c0.2,0,0.3,0.1,0.3,0.3V12.6z"/>
		</g>
		<g>
			<path class="st0" d="M52.2,9.5c0,0.2-0.1,0.3-0.3,0.3h-1c-0.2,0-0.3-0.1-0.3-0.3v-1c0-0.2,0.1-0.3,0.3-0.3h1
				c0.2,0,0.3,0.1,0.3,0.3V9.5z"/>
		</g>
		<g>
			<path class="st0" d="M55.4,9.5c0,0.2-0.1,0.3-0.3,0.3h-1c-0.2,0-0.3-0.1-0.3-0.3v-1c0-0.2,0.1-0.3,0.3-0.3h1
				c0.2,0,0.3,0.1,0.3,0.3V9.5z"/>
		</g>
		<g>
			<path class="st0" d="M52.2,6.4c0,0.2-0.1,0.3-0.3,0.3h-1c-0.2,0-0.3-0.1-0.3-0.3v-1c0-0.2,0.1-0.3,0.3-0.3h1
				c0.2,0,0.3,0.1,0.3,0.3V6.4z"/>
		</g>
		<g>
			<path class="st0" d="M55.4,6.4c0,0.2-0.1,0.3-0.3,0.3h-1c-0.2,0-0.3-0.1-0.3-0.3v-1c0-0.2,0.1-0.3,0.3-0.3h1
				c0.2,0,0.3,0.1,0.3,0.3V6.4z"/>
		</g>
		<g>
			<path class="st0" d="M52.2,3.3c0,0.2-0.1,0.3-0.3,0.3h-1c-0.2,0-0.3-0.1-0.3-0.3v-1c0-0.2,0.1-0.3,0.3-0.3h1
				c0.2,0,0.3,0.1,0.3,0.3V3.3z"/>
		</g>
		<g>
			<path class="st0" d="M55.4,3.3c0,0.2-0.1,0.3-0.3,0.3h-1c-0.2,0-0.3-0.1-0.3-0.3v-1c0-0.2,0.1-0.3,0.3-0.3h1
				c0.2,0,0.3,0.1,0.3,0.3V3.3z"/>
		</g>
		<g>
			<path class="st0" d="M45.7,18.8c0,0.2-0.1,0.3-0.3,0.3h-1c-0.2,0-0.3-0.1-0.3-0.3v-1c0-0.2,0.1-0.3,0.3-0.3h1
				c0.2,0,0.3,0.1,0.3,0.3V18.8z"/>
		</g>
		<g>
			<path class="st0" d="M48.9,18.8c0,0.2-0.1,0.3-0.3,0.3h-1c-0.2,0-0.3-0.1-0.3-0.3v-1c0-0.2,0.1-0.3,0.3-0.3h1
				c0.2,0,0.3,0.1,0.3,0.3V18.8z"/>
		</g>
		<g>
			<path class="st0" d="M52.2,18.8c0,0.2-0.1,0.3-0.3,0.3h-1c-0.2,0-0.3-0.1-0.3-0.3v-1c0-0.2,0.1-0.3,0.3-0.3h1
				c0.2,0,0.3,0.1,0.3,0.3V18.8z"/>
		</g>
		<g>
			<path class="st0" d="M32.6,18.8c0,0.2-0.1,0.3-0.3,0.3h-1c-0.2,0-0.3-0.1-0.3-0.3v-1c0-0.2,0.1-0.3,0.3-0.3h1
				c0.2,0,0.3,0.1,0.3,0.3V18.8z"/>
		</g>
		<g>
			<path class="st0" d="M35.9,18.8c0,0.2-0.1,0.3-0.3,0.3h-1c-0.2,0-0.3-0.1-0.3-0.3v-1c0-0.2,0.1-0.3,0.3-0.3h1
				c0.2,0,0.3,0.1,0.3,0.3V18.8z"/>
		</g>
		<g>
			<path class="st0" d="M39.1,18.8c0,0.2-0.1,0.3-0.3,0.3h-1c-0.2,0-0.3-0.1-0.3-0.3v-1c0-0.2,0.1-0.3,0.3-0.3h1
				c0.2,0,0.3,0.1,0.3,0.3V18.8z"/>
		</g>
		<g>
			<path class="st0" d="M42.4,18.8c0,0.2-0.1,0.3-0.3,0.3h-1c-0.2,0-0.3-0.1-0.3-0.3v-1c0-0.2,0.1-0.3,0.3-0.3h1
				c0.2,0,0.3,0.1,0.3,0.3V18.8z"/>
		</g>
		<g>
			<path class="st0" d="M52.2,21.8c0,0.2-0.1,0.3-0.3,0.3h-1c-0.2,0-0.3-0.1-0.3-0.3v-1c0-0.2,0.1-0.3,0.3-0.3h1
				c0.2,0,0.3,0.1,0.3,0.3V21.8z"/>
		</g>
		<g>
			<path class="st0" d="M35.9,21.8c0,0.2-0.1,0.3-0.3,0.3h-1c-0.2,0-0.3-0.1-0.3-0.3v-1c0-0.2,0.1-0.3,0.3-0.3h1
				c0.2,0,0.3,0.1,0.3,0.3V21.8z"/>
		</g>
		<g>
			<path class="st0" d="M39.1,21.8c0,0.2-0.1,0.3-0.3,0.3h-1c-0.2,0-0.3-0.1-0.3-0.3v-1c0-0.2,0.1-0.3,0.3-0.3h1
				c0.2,0,0.3,0.1,0.3,0.3V21.8z"/>
		</g>
		<g>
			<path class="st0" d="M52.2,24.9c0,0.2-0.1,0.3-0.3,0.3h-1c-0.2,0-0.3-0.1-0.3-0.3v-1c0-0.2,0.1-0.3,0.3-0.3h1
				c0.2,0,0.3,0.1,0.3,0.3V24.9z"/>
		</g>
		<g>
			<path class="st0" d="M35.9,24.9c0,0.2-0.1,0.3-0.3,0.3h-1c-0.2,0-0.3-0.1-0.3-0.3v-1c0-0.2,0.1-0.3,0.3-0.3h1
				c0.2,0,0.3,0.1,0.3,0.3V24.9z"/>
		</g>
		<g>
			<path class="st0" d="M39.1,24.9c0,0.2-0.1,0.3-0.3,0.3h-1c-0.2,0-0.3-0.1-0.3-0.3v-1c0-0.2,0.1-0.3,0.3-0.3h1
				c0.2,0,0.3,0.1,0.3,0.3V24.9z"/>
		</g>
		<g>
			<path class="st0" d="M45.7,21.8c0,0.2-0.1,0.3-0.3,0.3h-1c-0.2,0-0.3-0.1-0.3-0.3v-1c0-0.2,0.1-0.3,0.3-0.3h1
				c0.2,0,0.3,0.1,0.3,0.3V21.8z"/>
		</g>
		<g>
			<path class="st0" d="M48.9,21.8c0,0.2-0.1,0.3-0.3,0.3h-1c-0.2,0-0.3-0.1-0.3-0.3v-1c0-0.2,0.1-0.3,0.3-0.3h1
				c0.2,0,0.3,0.1,0.3,0.3V21.8z"/>
		</g>
		<g>
			<path class="st0" d="M52.2,28c0,0.2-0.1,0.3-0.3,0.3h-1c-0.2,0-0.3-0.1-0.3-0.3v-1c0-0.2,0.1-0.3,0.3-0.3h1
				c0.2,0,0.3,0.1,0.3,0.3V28z"/>
		</g>
		<g>
			<path class="st0" d="M55.4,28c0,0.2-0.1,0.3-0.3,0.3h-1c-0.2,0-0.3-0.1-0.3-0.3v-1c0-0.2,0.1-0.3,0.3-0.3h1
				c0.2,0,0.3,0.1,0.3,0.3V28z"/>
		</g>
		<g>
			<path class="st0" d="M35.9,28c0,0.2-0.1,0.3-0.3,0.3h-1c-0.2,0-0.3-0.1-0.3-0.3v-1c0-0.2,0.1-0.3,0.3-0.3h1
				c0.2,0,0.3,0.1,0.3,0.3V28z"/>
		</g>
		<g>
			<path class="st0" d="M39.1,28c0,0.2-0.1,0.3-0.3,0.3h-1c-0.2,0-0.3-0.1-0.3-0.3v-1c0-0.2,0.1-0.3,0.3-0.3h1
				c0.2,0,0.3,0.1,0.3,0.3V28z"/>
		</g>
		<g>
			<path class="st0" d="M55.4,21.8c0,0.2-0.1,0.3-0.3,0.3h-1c-0.2,0-0.3-0.1-0.3-0.3v-1c0-0.2,0.1-0.3,0.3-0.3h1
				c0.2,0,0.3,0.1,0.3,0.3V21.8z"/>
		</g>
		<g>
			<path class="st0" d="M52.2,31.1c0,0.2-0.1,0.3-0.3,0.3h-1c-0.2,0-0.3-0.1-0.3-0.3v-1c0-0.2,0.1-0.3,0.3-0.3h1
				c0.2,0,0.3,0.1,0.3,0.3V31.1z"/>
		</g>
		<g>
			<path class="st0" d="M55.4,31.1c0,0.2-0.1,0.3-0.3,0.3h-1c-0.2,0-0.3-0.1-0.3-0.3v-1c0-0.2,0.1-0.3,0.3-0.3h1
				c0.2,0,0.3,0.1,0.3,0.3V31.1z"/>
		</g>
		<g>
			<path class="st0" d="M39.1,34.2c0,0.2-0.1,0.3-0.3,0.3h-1c-0.2,0-0.3-0.1-0.3-0.3v-1c0-0.2,0.1-0.3,0.3-0.3h1
				c0.2,0,0.3,0.1,0.3,0.3V34.2z"/>
		</g>
		<g>
			<path class="st0" d="M35.9,31.1c0,0.2-0.1,0.3-0.3,0.3h-1c-0.2,0-0.3-0.1-0.3-0.3v-1c0-0.2,0.1-0.3,0.3-0.3h1
				c0.2,0,0.3,0.1,0.3,0.3V31.1z"/>
		</g>
		<g>
			<path class="st0" d="M39.1,31.1c0,0.2-0.1,0.3-0.3,0.3h-1c-0.2,0-0.3-0.1-0.3-0.3v-1c0-0.2,0.1-0.3,0.3-0.3h1
				c0.2,0,0.3,0.1,0.3,0.3V31.1z"/>
		</g>
		<g>
			<path class="st0" d="M55.4,24.9c0,0.2-0.1,0.3-0.3,0.3h-1c-0.2,0-0.3-0.1-0.3-0.3v-1c0-0.2,0.1-0.3,0.3-0.3h1
				c0.2,0,0.3,0.1,0.3,0.3V24.9z"/>
		</g>
		<g>
			<path class="st0" d="M52.2,34.2c0,0.2-0.1,0.3-0.3,0.3h-1c-0.2,0-0.3-0.1-0.3-0.3v-1c0-0.2,0.1-0.3,0.3-0.3h1
				c0.2,0,0.3,0.1,0.3,0.3V34.2z"/>
		</g>
		<g>
			<path class="st0" d="M55.4,34.2c0,0.2-0.1,0.3-0.3,0.3h-1c-0.2,0-0.3-0.1-0.3-0.3v-1c0-0.2,0.1-0.3,0.3-0.3h1
				c0.2,0,0.3,0.1,0.3,0.3V34.2z"/>
		</g>
		<g>
			<path class="st0" d="M35.9,34.2c0,0.2-0.1,0.3-0.3,0.3h-1c-0.2,0-0.3-0.1-0.3-0.3v-1c0-0.2,0.1-0.3,0.3-0.3h1
				c0.2,0,0.3,0.1,0.3,0.3V34.2z"/>
		</g>
		<g>
			<path class="st0" d="M45.7,37.3c0,0.2-0.1,0.3-0.3,0.3h-1c-0.2,0-0.3-0.1-0.3-0.3v-1c0-0.2,0.1-0.3,0.3-0.3h1
				c0.2,0,0.3,0.1,0.3,0.3V37.3z"/>
		</g>
		<g>
			<path class="st0" d="M48.9,37.3c0,0.2-0.1,0.3-0.3,0.3h-1c-0.2,0-0.3-0.1-0.3-0.3v-1c0-0.2,0.1-0.3,0.3-0.3h1
				c0.2,0,0.3,0.1,0.3,0.3V37.3z"/>
		</g>
		<g>
			<path class="st0" d="M52.2,37.3c0,0.2-0.1,0.3-0.3,0.3h-1c-0.2,0-0.3-0.1-0.3-0.3v-1c0-0.2,0.1-0.3,0.3-0.3h1
				c0.2,0,0.3,0.1,0.3,0.3V37.3z"/>
		</g>
		<g>
			<path class="st0" d="M55.4,37.3c0,0.2-0.1,0.3-0.3,0.3h-1c-0.2,0-0.3-0.1-0.3-0.3v-1c0-0.2,0.1-0.3,0.3-0.3h1
				c0.2,0,0.3,0.1,0.3,0.3V37.3z"/>
		</g>
		<g>
			<path class="st0" d="M39.1,37.3c0,0.2-0.1,0.3-0.3,0.3h-1c-0.2,0-0.3-0.1-0.3-0.3v-1c0-0.2,0.1-0.3,0.3-0.3h1
				c0.2,0,0.3,0.1,0.3,0.3V37.3z"/>
		</g>
		<g>
			<path class="st0" d="M42.4,37.3c0,0.2-0.1,0.3-0.3,0.3h-1c-0.2,0-0.3-0.1-0.3-0.3v-1c0-0.2,0.1-0.3,0.3-0.3h1
				c0.2,0,0.3,0.1,0.3,0.3V37.3z"/>
		</g>
		<g>
			<path class="st0" d="M58.7,37.3c0,0.2-0.1,0.3-0.3,0.3h-1c-0.2,0-0.3-0.1-0.3-0.3v-1c0-0.2,0.1-0.3,0.3-0.3h1
				c0.2,0,0.3,0.1,0.3,0.3V37.3z"/>
		</g>
		<g>
			<path class="st0" d="M55.4,40.4c0,0.2-0.1,0.3-0.3,0.3h-1c-0.2,0-0.3-0.1-0.3-0.3v-1c0-0.2,0.1-0.3,0.3-0.3h1
				c0.2,0,0.3,0.1,0.3,0.3V40.4z"/>
		</g>
		<g>
			<path class="st0" d="M32.6,37.3c0,0.2-0.1,0.3-0.3,0.3h-1c-0.2,0-0.3-0.1-0.3-0.3v-1c0-0.2,0.1-0.3,0.3-0.3h1
				c0.2,0,0.3,0.1,0.3,0.3V37.3z"/>
		</g>
		<g>
			<path class="st0" d="M35.9,37.3c0,0.2-0.1,0.3-0.3,0.3h-1c-0.2,0-0.3-0.1-0.3-0.3v-1c0-0.2,0.1-0.3,0.3-0.3h1
				c0.2,0,0.3,0.1,0.3,0.3V37.3z"/>
		</g>
		<g>
			<path class="st0" d="M39.1,40.4c0,0.2-0.1,0.3-0.3,0.3h-1c-0.2,0-0.3-0.1-0.3-0.3v-1c0-0.2,0.1-0.3,0.3-0.3h1
				c0.2,0,0.3,0.1,0.3,0.3V40.4z"/>
		</g>
		<g>
			<path class="st0" d="M42.4,40.4c0,0.2-0.1,0.3-0.3,0.3h-1c-0.2,0-0.3-0.1-0.3-0.3v-1c0-0.2,0.1-0.3,0.3-0.3h1
				c0.2,0,0.3,0.1,0.3,0.3V40.4z"/>
		</g>
		<g>
			<path class="st0" d="M55.4,18.8c0,0.2-0.1,0.3-0.3,0.3h-1c-0.2,0-0.3-0.1-0.3-0.3v-1c0-0.2,0.1-0.3,0.3-0.3h1
				c0.2,0,0.3,0.1,0.3,0.3V18.8z"/>
		</g>
		<g>
			<path class="st0" d="M58.7,18.8c0,0.2-0.1,0.3-0.3,0.3h-1c-0.2,0-0.3-0.1-0.3-0.3v-1c0-0.2,0.1-0.3,0.3-0.3h1
				c0.2,0,0.3,0.1,0.3,0.3V18.8z"/>
		</g>
		<g>
			<path class="st0" d="M58.7,1.6c0,0.2-0.1,0.3-0.3,0.3h-1c-0.2,0-0.3-0.1-0.3-0.3v-1c0-0.2,0.1-0.3,0.3-0.3h1
				c0.2,0,0.3,0.1,0.3,0.3V1.6z"/>
		</g>
		<g>
			<path class="st0" d="M39.1,15.7c0,0.2-0.1,0.3-0.3,0.3h-1c-0.2,0-0.3-0.1-0.3-0.3v-1c0-0.2,0.1-0.3,0.3-0.3h1
				c0.2,0,0.3,0.1,0.3,0.3V15.7z"/>
		</g>
	</g>
</g>
<g id="_x22_s_x22__2_">
	<g>
		<g>
			<path class="st0" d="M14.7,12.6c0,0.2-0.1,0.3-0.3,0.3h-1c-0.2,0-0.3-0.1-0.3-0.3v-1c0-0.2,0.1-0.3,0.3-0.3h1
				c0.2,0,0.3,0.1,0.3,0.3V12.6z"/>
		</g>
		<g>
			<path class="st0" d="M18.1,12.6c0,0.2-0.1,0.3-0.3,0.3h-1c-0.2,0-0.3-0.1-0.3-0.3v-1c0-0.2,0.1-0.3,0.3-0.3h1
				c0.2,0,0.3,0.1,0.3,0.3V12.6z"/>
		</g>
		<g>
			<path class="st0" d="M21.4,12.6c0,0.2-0.1,0.3-0.3,0.3h-1c-0.2,0-0.3-0.1-0.3-0.3v-1c0-0.2,0.1-0.3,0.3-0.3h1
				c0.2,0,0.3,0.1,0.3,0.3V12.6z"/>
		</g>
		<g>
			<path class="st0" d="M24.7,12.6c0,0.2-0.1,0.3-0.3,0.3h-1c-0.2,0-0.3-0.1-0.3-0.3v-1c0-0.2,0.1-0.3,0.3-0.3h1
				c0.2,0,0.3,0.1,0.3,0.3V12.6z"/>
		</g>
		<g>
			<path class="st0" d="M14.7,15.7c0,0.2-0.1,0.3-0.3,0.3h-1c-0.2,0-0.3-0.1-0.3-0.3v-1c0-0.2,0.1-0.3,0.3-0.3h1
				c0.2,0,0.3,0.1,0.3,0.3V15.7z"/>
		</g>
		<g>
			<path class="st0" d="M18.1,15.7c0,0.2-0.1,0.3-0.3,0.3h-1c-0.2,0-0.3-0.1-0.3-0.3v-1c0-0.2,0.1-0.3,0.3-0.3h1
				c0.2,0,0.3,0.1,0.3,0.3V15.7z"/>
		</g>
		<g>
			<path class="st0" d="M21.4,15.7c0,0.2-0.1,0.3-0.3,0.3h-1c-0.2,0-0.3-0.1-0.3-0.3v-1c0-0.2,0.1-0.3,0.3-0.3h1
				c0.2,0,0.3,0.1,0.3,0.3V15.7z"/>
		</g>
		<g>
			<path class="st0" d="M1.9,15.7c0,0.2-0.1,0.3-0.3,0.3h-1c-0.2,0-0.3-0.1-0.3-0.3v-1c0-0.2,0.1-0.3,0.3-0.3h1
				c0.2,0,0.3,0.1,0.3,0.3V15.7z"/>
		</g>
		<g>
			<path class="st0" d="M5.1,15.7C5.1,15.8,5,16,4.8,16h-1c-0.2,0-0.3-0.1-0.3-0.3v-1c0-0.2,0.1-0.3,0.3-0.3h1
				c0.2,0,0.3,0.1,0.3,0.3V15.7z"/>
		</g>
		<g>
			<path class="st0" d="M8.3,15.7C8.3,15.8,8.2,16,8,16H7c-0.2,0-0.3-0.1-0.3-0.3v-1c0-0.2,0.1-0.3,0.3-0.3h1c0.2,0,0.3,0.1,0.3,0.3
				V15.7z"/>
		</g>
		<g>
			<path class="st0" d="M11.6,15.7c0,0.2-0.1,0.3-0.3,0.3h-1c-0.2,0-0.3-0.1-0.3-0.3v-1c0-0.2,0.1-0.3,0.3-0.3h1
				c0.2,0,0.3,0.1,0.3,0.3V15.7z"/>
		</g>
		<g>
			<path class="st0" d="M18.1,18.8c0,0.2-0.1,0.3-0.3,0.3h-1c-0.2,0-0.3-0.1-0.3-0.3v-1c0-0.2,0.1-0.3,0.3-0.3h1
				c0.2,0,0.3,0.1,0.3,0.3V18.8z"/>
		</g>
		<g>
			<path class="st0" d="M5.1,18.8c0,0.2-0.1,0.3-0.3,0.3h-1c-0.2,0-0.3-0.1-0.3-0.3v-1c0-0.2,0.1-0.3,0.3-0.3h1
				c0.2,0,0.3,0.1,0.3,0.3V18.8z"/>
		</g>
		<g>
			<path class="st0" d="M8.3,18.8c0,0.2-0.1,0.3-0.3,0.3H7c-0.2,0-0.3-0.1-0.3-0.3v-1c0-0.2,0.1-0.3,0.3-0.3h1
				c0.2,0,0.3,0.1,0.3,0.3V18.8z"/>
		</g>
		<g>
			<path class="st0" d="M5.1,21.8c0,0.2-0.1,0.3-0.3,0.3h-1c-0.2,0-0.3-0.1-0.3-0.3v-1c0-0.2,0.1-0.3,0.3-0.3h1
				c0.2,0,0.3,0.1,0.3,0.3V21.8z"/>
		</g>
		<g>
			<path class="st0" d="M8.3,21.8c0,0.2-0.1,0.3-0.3,0.3H7c-0.2,0-0.3-0.1-0.3-0.3v-1c0-0.2,0.1-0.3,0.3-0.3h1
				c0.2,0,0.3,0.1,0.3,0.3V21.8z"/>
		</g>
		<g>
			<path class="st0" d="M14.7,24.9c0,0.2-0.1,0.3-0.3,0.3h-1c-0.2,0-0.3-0.1-0.3-0.3v-1c0-0.2,0.1-0.3,0.3-0.3h1
				c0.2,0,0.3,0.1,0.3,0.3V24.9z"/>
		</g>
		<g>
			<path class="st0" d="M18.1,24.9c0,0.2-0.1,0.3-0.3,0.3h-1c-0.2,0-0.3-0.1-0.3-0.3v-1c0-0.2,0.1-0.3,0.3-0.3h1
				c0.2,0,0.3,0.1,0.3,0.3V24.9z"/>
		</g>
		<g>
			<path class="st0" d="M21.4,24.9c0,0.2-0.1,0.3-0.3,0.3h-1c-0.2,0-0.3-0.1-0.3-0.3v-1c0-0.2,0.1-0.3,0.3-0.3h1
				c0.2,0,0.3,0.1,0.3,0.3V24.9z"/>
		</g>
		<g>
			<path class="st0" d="M5.1,24.9c0,0.2-0.1,0.3-0.3,0.3h-1c-0.2,0-0.3-0.1-0.3-0.3v-1c0-0.2,0.1-0.3,0.3-0.3h1
				c0.2,0,0.3,0.1,0.3,0.3V24.9z"/>
		</g>
		<g>
			<path class="st0" d="M8.3,24.9c0,0.2-0.1,0.3-0.3,0.3H7c-0.2,0-0.3-0.1-0.3-0.3v-1c0-0.2,0.1-0.3,0.3-0.3h1
				c0.2,0,0.3,0.1,0.3,0.3V24.9z"/>
		</g>
		<g>
			<path class="st0" d="M11.6,24.9c0,0.2-0.1,0.3-0.3,0.3h-1c-0.2,0-0.3-0.1-0.3-0.3v-1c0-0.2,0.1-0.3,0.3-0.3h1
				c0.2,0,0.3,0.1,0.3,0.3V24.9z"/>
		</g>
		<g>
			<path class="st0" d="M21.4,28c0,0.2-0.1,0.3-0.3,0.3h-1c-0.2,0-0.3-0.1-0.3-0.3v-1c0-0.2,0.1-0.3,0.3-0.3h1
				c0.2,0,0.3,0.1,0.3,0.3V28z"/>
		</g>
		<g>
			<path class="st0" d="M24.7,28c0,0.2-0.1,0.3-0.3,0.3h-1c-0.2,0-0.3-0.1-0.3-0.3v-1c0-0.2,0.1-0.3,0.3-0.3h1
				c0.2,0,0.3,0.1,0.3,0.3V28z"/>
		</g>
		<g>
			<path class="st0" d="M1.9,24.9c0,0.2-0.1,0.3-0.3,0.3h-1c-0.2,0-0.3-0.1-0.3-0.3v-1c0-0.2,0.1-0.3,0.3-0.3h1
				c0.2,0,0.3,0.1,0.3,0.3V24.9z"/>
		</g>
		<g>
			<path class="st0" d="M5.1,28c0,0.2-0.1,0.3-0.3,0.3h-1c-0.2,0-0.3-0.1-0.3-0.3v-1c0-0.2,0.1-0.3,0.3-0.3h1c0.2,0,0.3,0.1,0.3,0.3
				V28z"/>
		</g>
		<g>
			<path class="st0" d="M8.3,28c0,0.2-0.1,0.3-0.3,0.3H7c-0.2,0-0.3-0.1-0.3-0.3v-1c0-0.2,0.1-0.3,0.3-0.3h1c0.2,0,0.3,0.1,0.3,0.3
				V28z"/>
		</g>
		<g>
			<path class="st0" d="M11.6,28c0,0.2-0.1,0.3-0.3,0.3h-1c-0.2,0-0.3-0.1-0.3-0.3v-1c0-0.2,0.1-0.3,0.3-0.3h1
				c0.2,0,0.3,0.1,0.3,0.3V28z"/>
		</g>
		<g>
			<path class="st0" d="M21.4,31.1c0,0.2-0.1,0.3-0.3,0.3h-1c-0.2,0-0.3-0.1-0.3-0.3v-1c0-0.2,0.1-0.3,0.3-0.3h1
				c0.2,0,0.3,0.1,0.3,0.3V31.1z"/>
		</g>
		<g>
			<path class="st0" d="M24.7,31.1c0,0.2-0.1,0.3-0.3,0.3h-1c-0.2,0-0.3-0.1-0.3-0.3v-1c0-0.2,0.1-0.3,0.3-0.3h1
				c0.2,0,0.3,0.1,0.3,0.3V31.1z"/>
		</g>
		<g>
			<path class="st0" d="M14.7,37.3c0,0.2-0.1,0.3-0.3,0.3h-1c-0.2,0-0.3-0.1-0.3-0.3v-1c0-0.2,0.1-0.3,0.3-0.3h1
				c0.2,0,0.3,0.1,0.3,0.3V37.3z"/>
		</g>
		<g>
			<path class="st0" d="M18.1,37.3c0,0.2-0.1,0.3-0.3,0.3h-1c-0.2,0-0.3-0.1-0.3-0.3v-1c0-0.2,0.1-0.3,0.3-0.3h1
				c0.2,0,0.3,0.1,0.3,0.3V37.3z"/>
		</g>
		<g>
			<path class="st0" d="M21.4,37.3c0,0.2-0.1,0.3-0.3,0.3h-1c-0.2,0-0.3-0.1-0.3-0.3v-1c0-0.2,0.1-0.3,0.3-0.3h1
				c0.2,0,0.3,0.1,0.3,0.3V37.3z"/>
		</g>
		<g>
			<path class="st0" d="M8.3,37.3c0,0.2-0.1,0.3-0.3,0.3H7c-0.2,0-0.3-0.1-0.3-0.3v-1c0-0.2,0.1-0.3,0.3-0.3h1
				c0.2,0,0.3,0.1,0.3,0.3V37.3z"/>
		</g>
		<g>
			<path class="st0" d="M11.6,37.3c0,0.2-0.1,0.3-0.3,0.3h-1c-0.2,0-0.3-0.1-0.3-0.3v-1c0-0.2,0.1-0.3,0.3-0.3h1
				c0.2,0,0.3,0.1,0.3,0.3V37.3z"/>
		</g>
		<g>
			<path class="st0" d="M5.1,37.3c0,0.2-0.1,0.3-0.3,0.3h-1c-0.2,0-0.3-0.1-0.3-0.3v-1c0-0.2,0.1-0.3,0.3-0.3h1
				c0.2,0,0.3,0.1,0.3,0.3V37.3z"/>
		</g>
		<g>
			<path class="st0" d="M21.4,34.2c0,0.2-0.1,0.3-0.3,0.3h-1c-0.2,0-0.3-0.1-0.3-0.3v-1c0-0.2,0.1-0.3,0.3-0.3h1
				c0.2,0,0.3,0.1,0.3,0.3V34.2z"/>
		</g>
		<g>
			<path class="st0" d="M24.7,34.2c0,0.2-0.1,0.3-0.3,0.3h-1c-0.2,0-0.3-0.1-0.3-0.3v-1c0-0.2,0.1-0.3,0.3-0.3h1
				c0.2,0,0.3,0.1,0.3,0.3V34.2z"/>
		</g>
		<g>
			<path class="st0" d="M21.4,40.4c0,0.2-0.1,0.3-0.3,0.3h-1c-0.2,0-0.3-0.1-0.3-0.3v-1c0-0.2,0.1-0.3,0.3-0.3h1
				c0.2,0,0.3,0.1,0.3,0.3V40.4z"/>
		</g>
		<g>
			<path class="st0" d="M24.7,37.3c0,0.2-0.1,0.3-0.3,0.3h-1c-0.2,0-0.3-0.1-0.3-0.3v-1c0-0.2,0.1-0.3,0.3-0.3h1
				c0.2,0,0.3,0.1,0.3,0.3V37.3z"/>
		</g>
		<g>
			<path class="st0" d="M18.1,40.4c0,0.2-0.1,0.3-0.3,0.3h-1c-0.2,0-0.3-0.1-0.3-0.3v-1c0-0.2,0.1-0.3,0.3-0.3h1
				c0.2,0,0.3,0.1,0.3,0.3V40.4z"/>
		</g>
		<g>
			<path class="st0" d="M14.7,40.4c0,0.2-0.1,0.3-0.3,0.3h-1c-0.2,0-0.3-0.1-0.3-0.3v-1c0-0.2,0.1-0.3,0.3-0.3h1
				c0.2,0,0.3,0.1,0.3,0.3V40.4z"/>
		</g>
		<g>
			<path class="st0" d="M1.9,40.4c0,0.2-0.1,0.3-0.3,0.3h-1c-0.2,0-0.3-0.1-0.3-0.3v-1c0-0.2,0.1-0.3,0.3-0.3h1
				c0.2,0,0.3,0.1,0.3,0.3V40.4z"/>
		</g>
		<g>
			<path class="st0" d="M5.1,40.4c0,0.2-0.1,0.3-0.3,0.3h-1c-0.2,0-0.3-0.1-0.3-0.3v-1c0-0.2,0.1-0.3,0.3-0.3h1
				c0.2,0,0.3,0.1,0.3,0.3V40.4z"/>
		</g>
	</g>
</g>
</svg>
