<?xml version="1.0" encoding="utf-8"?>
<!-- Generator: Adobe Illustrator 23.1.1, SVG Export Plug-In . SVG Version: 6.00 Build 0)  -->
<svg version="1.1" id="Layer_1" xmlns="http://www.w3.org/2000/svg" xmlns:xlink="http://www.w3.org/1999/xlink" x="0px" y="0px"
	 viewBox="0 0 24 24" style="enable-background:new 0 0 24 24;" xml:space="preserve">
<style type="text/css">
	.st0{fill:#FFFFCD;}
</style>
<title>YouTube icon</title>
<path class="st0" d="M18.6,22.4c-0.8,0.8-2.4,1.3-4,1.4c-0.1,0-0.1,0-0.2,0h0c-5.2,0-6.5-3.9-6.5-6.3v-7.1c0-0.1,0-0.1-0.1-0.1H5.3
	c-0.1,0-0.1,0-0.1-0.1V6.9c0,0,0-0.1,0.1-0.1c2.7-1,4.2-3.1,4.5-6.3c0-0.2,0.2-0.2,0.2-0.2h3.3c0.1,0,0.1,0,0.1,0.1v5.7
	c0,0.1,0,0.1,0.1,0.1h4.1c0.1,0,0.1,0,0.1,0.1v3.8c0,0.1,0,0.1-0.1,0.1h-4.2c-0.1,0-0.1,0-0.1,0.1l0,6.8c0,1.5,0.8,2.3,2.2,2.3
	c0.6,0,1.2-0.1,1.8-0.4c0.1,0,0.1,0,0.1,0.1l1.1,3.1C18.6,22.3,18.6,22.4,18.6,22.4z"/>
</svg>
